<?xml version="1.0" encoding="iso-8859-1"?>
<!-- Generator: Adobe Illustrator 19.0.0, SVG Export Plug-In . SVG Version: 6.00 Build 0)  -->
<svg version="1.1" id="Capa_1" xmlns="http://www.w3.org/2000/svg" xmlns:xlink="http://www.w3.org/1999/xlink" x="0px" y="0px"
	 viewBox="0 0 466.547 466.547" style="enable-background:new 0 0 466.547 466.547;" xml:space="preserve">
<path style="fill:#4DCFE0;" d="M408.555,47.02v403.853H57.992V47.02h103.445v60.604h144.196V47.02H408.555z M187.559,374.073
	v-61.127h-61.127v61.126C126.433,374.073,187.559,374.073,187.559,374.073z M187.559,248.686v-61.127h-61.127v61.127H187.559z"/>
<g>
	<path style="fill:#D4E1F4;" d="M233.535,15.673c19.331,0,35.004,13.584,38.661,31.347h33.437v60.604H161.437V47.02h33.437
		C199.053,29.257,214.204,15.673,233.535,15.673z"/>
	<rect x="126.433" y="312.947" style="fill:#D4E1F4;" width="61.127" height="61.127"/>
	<rect x="126.433" y="187.559" style="fill:#D4E1F4;" width="61.127" height="61.127"/>
</g>
<g>
	<path style="fill:#3A2C51;" d="M408.555,31.347H283.167C274.286,12.539,254.955,0,233.535,0s-40.229,12.539-49.633,31.347H57.992
		c-8.882,0-15.673,6.792-15.673,15.673v403.853c0,8.882,6.792,15.673,15.673,15.673h350.563c8.882,0,15.673-6.792,15.673-15.673
		V47.02C424.229,38.139,417.437,31.347,408.555,31.347z M194.873,62.694c7.314,0,13.584-5.224,15.151-12.016
		c2.09-9.404,10.449-19.331,23.51-19.331c11.494,0,20.898,7.837,23.51,18.808c1.567,7.314,7.837,12.539,15.151,12.539h17.763v29.257
		H177.11V62.694H194.873z M392.882,435.2H73.665V62.694h72.098v44.931c0,8.882,6.792,15.673,15.673,15.673h144.196
		c8.882,0,15.673-6.792,15.673-15.673V62.694h71.576V435.2z"/>
	<path style="fill:#3A2C51;" d="M187.559,264.359h-61.127c-8.882,0-15.673-6.792-15.673-15.673v-61.127
		c0-8.882,6.792-15.673,15.673-15.673h61.127c8.882,0,15.673,6.792,15.673,15.673v61.127
		C203.233,257.567,196.441,264.359,187.559,264.359z M142.106,233.012h29.78v-29.78h-29.78V233.012z"/>
	<path style="fill:#3A2C51;" d="M330.188,233.535h-79.935c-8.882,0-15.673-6.792-15.673-15.673s6.792-15.673,15.673-15.673h79.935
		c8.882,0,15.673,6.792,15.673,15.673S339.069,233.535,330.188,233.535z"/>
	<path style="fill:#3A2C51;" d="M187.559,389.747h-61.127c-8.882,0-15.673-6.792-15.673-15.673v-61.127
		c0-8.882,6.792-15.673,15.673-15.673h61.127c8.882,0,15.673,6.792,15.673,15.673v61.126
		C203.233,382.955,196.441,389.747,187.559,389.747z M142.106,358.4h29.78v-29.78h-29.78V358.4z"/>
	<path style="fill:#3A2C51;" d="M330.188,358.922h-79.935c-8.882,0-15.673-6.792-15.673-15.673s6.792-15.673,15.673-15.673h79.935
		c8.882,0,15.673,6.792,15.673,15.673S339.069,358.922,330.188,358.922z"/>
</g>
<g>
</g>
<g>
</g>
<g>
</g>
<g>
</g>
<g>
</g>
<g>
</g>
<g>
</g>
<g>
</g>
<g>
</g>
<g>
</g>
<g>
</g>
<g>
</g>
<g>
</g>
<g>
</g>
<g>
</g>
</svg>
