<?xml version="1.0" encoding="utf-8"?>
<!-- Generator: Adobe Illustrator 19.0.0, SVG Export Plug-In . SVG Version: 6.00 Build 0)  -->
<svg xmlns="http://www.w3.org/2000/svg" xmlns:xlink="http://www.w3.org/1999/xlink" version="1.1" id="Layer_1" x="0px" y="0px" viewBox="0 0 98 98" style="enable-background:new 0 0 98 98;" xml:space="preserve" width="512" height="512">
<style type="text/css">
	.st0{fill:#D4E1F4;}
	.st1{fill:#4DCFE0;}
	.st2{fill:none;stroke:#3A2C51;stroke-width:6;stroke-linejoin:round;stroke-miterlimit:10;}
	.st3{fill:none;stroke:#3A2C51;stroke-width:6;stroke-linecap:round;stroke-linejoin:round;stroke-miterlimit:10;}
</style>
<g id="XMLID_379_">
	<g id="XMLID_407_">
		<g id="XMLID_1_">
			<g>
				<polygon class="st0" points="46.4,42.9 46.4,43 32,43 32,42.9 32,24 46.4,24     "/>
				<polygon class="st0" points="46.4,22.9 46.4,24 32,24 32,22.9 39.2,7.8     "/>
				<polygon class="st0" points="56.1,31.6 56.1,16.6 56.1,4.6 73.9,4.6 73.9,42.9 73.9,42.9 56.1,42.9 56.1,42.9     "/>
				<path class="st1" d="M79.3,42.9c3.5,8.5-3.6,22.1-4.2,31c-0.2,3.1-0.2,19.6-0.2,19.6H42.6l-0.5-7.6l-12.7-0.1l-2.8-13.3      l-8.8,0.1l8.7-21.4V43l5.5,0l14.4,0l9.7,0l17.8,0L79.3,42.9z"/>
			</g>
			<g>
				<path class="st2" d="M73.9,42.9l5.4,0c3.5,8.5-3.6,22.1-4.2,31c-0.2,3.1-0.2,19.6-0.2,19.6H42.6l-0.5-7.6l-12.7-0.1l-2.8-13.3      l-8.8,0.1l8.7-21.4V43l5.5,0l14.4,0l9.7,0L73.9,42.9z"/>
				<polyline class="st2" points="32,42.9 32,24 32,22.9 39.2,7.8 46.4,22.9 46.4,24 46.4,42.9     "/>
				<polyline class="st2" points="47,24 46.4,24 32,24     "/>
				<polyline class="st2" points="56.1,42.9 56.1,31.6 56.1,16.6 56.1,4.6 73.9,4.6 73.9,42.9     "/>
				<line class="st3" x1="56.1" y1="31.6" x2="63.9" y2="31.6"/>
				<line class="st3" x1="56.1" y1="16.6" x2="60.9" y2="16.6"/>
			</g>
		</g>
	</g>
</g>
</svg>
