<svg xmlns="http://www.w3.org/2000/svg" width="421.659" height="294.733" viewBox="0 0 421.659 294.733">
  <g id="Group_1606" data-name="Group 1606" transform="translate(-0.002 0)">
    <path id="Path_1858" data-name="Path 1858" d="M165.295,322.01C165.7,346.9,175,349.6,186.427,347a41.985,41.985,0,0,0,29.044-24.561l3.641-8.482a23.138,23.138,0,0,0-12.135-30.389h0A23.138,23.138,0,0,0,176.588,295.7C164.871,300.306,162.557,309.835,165.295,322.01Z" transform="translate(-146.511 -208.903)" fill="#2f2e41"/>
    <path id="Path_1859" data-name="Path 1859" d="M303.312,241.6l3.507-5.934a5.574,5.574,0,0,0-3.15-8.161h0a5.574,5.574,0,0,0-7.221,5.5l.206,6.379-16.48,45.164,8.987,1.876Z" transform="translate(-211.063 -178.591)" fill="#9f616a"/>
    <path id="Path_1860" data-name="Path 1860" d="M129.762,457.651l-4.316,5.374a5.574,5.574,0,0,0,1.955,8.526h0a5.574,5.574,0,0,0,7.931-4.42l.7-6.343,22.746-42.355-8.628-3.137Z" transform="translate(-124.215 -283.307)" fill="#9f616a"/>
    <path id="Path_1861" data-name="Path 1861" d="M196.912,546.716l.635,7.632.149,1.78,42.245-4.063a9.314,9.314,0,0,0,7.459-13.059l-13.624-29.249-4.706-10.1-20.393-4.706c-16.816,12.871-1.686,27.076,17.35,41.445q1.118.847,2.259,1.694Z" transform="translate(-164.697 -327.664)" fill="#2f2e41"/>
    <path id="Path_1862" data-name="Path 1862" d="M161.514,635.078h0a3.036,3.036,0,0,0,2.769-1.072L178.1,617.279l-.784-7.844-4.712-2.827a3.1,3.1,0,0,0-4.473,1.518l-9.013,22.833a3.035,3.035,0,0,0,2.394,4.119Z" transform="translate(-143.533 -389.599)" fill="#2f2e41"/>
    <path id="Path_1863" data-name="Path 1863" d="M191.6,545.147l.784,9.412,2.2-.212,40.041-3.851a9.314,9.314,0,0,0,7.459-13.059L230.82,512.2v-2.447l-4.706-10.1-20.393-4.706c-16.817,12.871-1.686,27.076,17.35,41.445l-.094.125Z" transform="translate(-161.74 -327.664)" opacity="0.2"/>
    <path id="Path_1864" data-name="Path 1864" d="M152.663,628h0a3.035,3.035,0,0,0,2.769-1.072L169.251,610.2l-.784-7.844-4.712-2.827a3.1,3.1,0,0,0-4.473,1.518l-9.013,22.833A3.035,3.035,0,0,0,152.663,628Z" transform="translate(-138.604 -385.656)" fill="#2f2e41"/>
    <path id="Path_1865" data-name="Path 1865" d="M188.062,539.636l.784,9.412,42.245-4.064a9.316,9.316,0,0,0,7.462-13.058L227.28,506.693V492.575l-27.452-4.706c-17.478,13.377-.448,28.195,19.609,43.139Z" transform="translate(-159.768 -323.721)" fill="#2f2e41"/>
    <circle id="Ellipse_532" data-name="Ellipse 532" cx="11.765" cy="11.765" r="11.765" transform="translate(43.196 81.79)" fill="#9f616a"/>
    <path id="Path_1866" data-name="Path 1866" d="M212.843,357.044l16.471,10.981,14.118-3.137-7.844-7.844V345.278l-12.55-.784C222.776,349.192,220.084,353.492,212.843,357.044Z" transform="translate(-173.568 -243.879)" fill="#9f616a"/>
    <path id="Path_1867" data-name="Path 1867" d="M206.7,424.763l30.59,3.922,7.059-32.943c3.279-8.744,1.4-16.47-4.674-23.369a5.24,5.24,0,0,0-4.979-4.21l-2.9.126c.328,10.4-7.337,7.9-18.824-.784l-1.387.416a7.791,7.791,0,0,0-5.469,8.6l1.265,8.538a58.415,58.415,0,0,0,2.49,9.955C213.007,404.392,211.886,414.314,206.7,424.763Z" transform="translate(-169.775 -256.693)" fill="#3598db"/>
    <path id="Path_1868" data-name="Path 1868" d="M175.672,392.32l14.118,4.706,6.275-22.746-2.126-.966a7.624,7.624,0,0,0-9.875,3.34Z" transform="translate(-152.869 -259.547)" fill="#3598db"/>
    <path id="Path_1869" data-name="Path 1869" d="M145.27,236.068l7.844,8.628,9.412-14.9-11.765-6.275Z" transform="translate(-80.896 -124.472)" fill="#3598db"/>
    <path id="Path_1870" data-name="Path 1870" d="M217.268,308.77c7.393,2.788,15.284,2.5,23.531,0v-9.412H217.268Z" transform="translate(-176.032 -218.744)" fill="#2f2e41"/>
    <path id="Path_1871" data-name="Path 1871" d="M780.974,441.213l-8.111,3.38-54.074-73.676-39.2,75.028-10.139-2.028L699.188,340.5H733.66Z" transform="translate(-372.798 -189.616)" fill="#2f2e41"/>
    <path id="Path_1872" data-name="Path 1872" d="M1042.833,701.552h0a3.534,3.534,0,0,1-2.693-.347l-17.106-9.849a3.471,3.471,0,0,1-.723-5.463l1.529-1.529,8.111-.676,12.4,11.9a3.534,3.534,0,0,1-1.518,5.959Z" transform="translate(-623.776 -432.769)" fill="#2f2e41"/>
    <path id="Path_1873" data-name="Path 1873" d="M767.357,707.654h0a3.535,3.535,0,0,0,2.694-.347l17.106-9.849a3.471,3.471,0,0,0,.723-5.463l-1.529-1.529-8.111-.676-12.4,11.9a3.534,3.534,0,0,0,1.518,5.959Z" transform="translate(-480.914 -436.167)" fill="#2f2e41"/>
    <path id="Path_1874" data-name="Path 1874" d="M794.912,193.845l-3.38,2.028-7-11.381a5.118,5.118,0,0,1,3.3-7.691h0a5.119,5.119,0,0,1,6.159,4.631Z" transform="translate(-491.504 -150.434)" fill="#ffb9b9"/>
    <path id="Path_1875" data-name="Path 1875" d="M1020.19,410.732l1.4-3.683,12.542,4.614a5.119,5.119,0,0,1,2.159,8.088h0a5.118,5.118,0,0,1-7.7.169Z" transform="translate(-623.161 -278.714)" fill="#ffb9b9"/>
    <circle id="Ellipse_533" data-name="Ellipse 533" cx="10.139" cy="10.139" r="10.139" transform="translate(333.825 63.69)" fill="#ffb9b9"/>
    <path id="Path_1876" data-name="Path 1876" d="M778.214,194.184H764.019V178.638l12.167-1.352Z" transform="translate(-425.463 -98.726)" fill="#ffb9b9"/>
    <path id="Path_1877" data-name="Path 1877" d="M894.729,379.558H856.2c1.359-21.5,2.434-42.271,0-54.074l2.24-10.753a6.058,6.058,0,0,1,6.683-4.776l5.271.659c3.57,6.276,7.884,6.216,12.843.676h6.35a6.366,6.366,0,0,1,6.364,6.492h0a80.408,80.408,0,0,1,1.634,23.078Z" transform="translate(-531.839 -224.619)" fill="#3f3d56"/>
    <path id="Path_1878" data-name="Path 1878" d="M672.5,94.569l5.407-2.7,29.065,47.991-8.111,12.166Z" transform="translate(-374.497 -51.158)" fill="#3f3d56"/>
    <path id="Path_1879" data-name="Path 1879" d="M967.136,360.1l4.621-3.9L947.2,321.793a21.762,21.762,0,0,0-21.644-8.763l-.775.142,9.285,16.248,12.229,9.259Z" transform="translate(-570.031 -226.158)" fill="#3f3d56"/>
    <path id="Path_1880" data-name="Path 1880" d="M897.851,258.1s1.895-4.168-3.031-6.063c0,0-4.168-6.82-12.5-2.273,0,0-5.684,2.273-5.684,8.336s-1.895,7.2-1.895,7.2,2.821-2.894,3.579-5.168,6.651-2.789,8.925-.516,7.957,1.895,7.957,1.895l-.379,8.336s1.895-4.926,2.652-4.926S898.988,258.1,897.851,258.1Z" transform="translate(-542.162 -190.255)" fill="#2f2e41"/>
    <ellipse id="Ellipse_534" data-name="Ellipse 534" cx="62.037" cy="3.231" rx="62.037" ry="3.231" transform="translate(292.716 288.272)" fill="#e6e6e6"/>
    <ellipse id="Ellipse_535" data-name="Ellipse 535" cx="32.791" cy="1.708" rx="32.791" ry="1.708" transform="translate(12.219 289.795)" fill="#e6e6e6"/>
    <path id="Path_1881" data-name="Path 1881" d="M530,174.284,330.657,192.15a3.711,3.711,0,0,1-4.022-3.361L322.2,139.34a3.711,3.711,0,0,1,3.361-4.022l199.348-17.866a3.711,3.711,0,0,1,4.023,3.361l4.432,49.449A3.711,3.711,0,0,1,530,174.284Z" transform="translate(-234.46 -117.436)" fill="#3598db"/>
    <circle id="Ellipse_536" data-name="Ellipse 536" cx="15.567" cy="15.567" r="15.567" transform="translate(103.925 28.415)" fill="#fff"/>
    <path id="Path_1882" data-name="Path 1882" d="M469.618,172.386a2.594,2.594,0,1,0,.463,5.168L591.9,166.636a2.594,2.594,0,0,0-.463-5.168Z" transform="translate(-315.245 -141.95)" fill="#fff"/>
    <path id="Path_1883" data-name="Path 1883" d="M472.754,207.376a2.594,2.594,0,1,0,.463,5.168l121.823-10.918a2.594,2.594,0,1,0-.463-5.168Z" transform="translate(-316.991 -161.435)" fill="#fff"/>
  </g>
</svg>