<?xml version="1.0" encoding="iso-8859-1"?>
<!-- Generator: Adobe Illustrator 19.0.0, SVG Export Plug-In . SVG Version: 6.00 Build 0)  -->
<svg version="1.1" id="Capa_1" xmlns="http://www.w3.org/2000/svg" xmlns:xlink="http://www.w3.org/1999/xlink" x="0px" y="0px"
	 viewBox="0 0 435.722 435.722" style="enable-background:new 0 0 435.722 435.722;" xml:space="preserve">
<path style="fill:#D4E1F4;" d="M354.22,201.012v117.551c-43.886,16.196-90.384,24.555-136.359,24.555s-92.996-8.359-136.882-24.555
	V201.012l3.135-7.837l133.747,52.245l133.224-52.245L354.22,201.012z"/>
<polygon style="fill:#4DCFE0;" points="420.049,166.531 351.086,193.175 217.861,245.42 84.114,193.175 15.673,166.531 
	217.861,92.343 "/>
<path style="fill:#3A2C51;" d="M435.722,166.531c0-6.269-4.18-12.539-10.449-14.629L223.086,77.714
	c-3.657-1.045-7.314-1.045-10.971,0L10.449,151.902C4.18,153.992,0,159.739,0,166.531c0,6.792,3.657,12.016,9.927,14.629
	l55.38,21.42v115.984c0,6.792,4.18,12.539,10.449,14.629c44.931,16.718,94.041,25.6,142.106,25.6s96.131-8.359,141.584-25.6
	c6.269-2.09,10.449-8.359,10.449-14.629V202.58l34.482-13.584v115.461c0,8.882,6.792,15.673,15.673,15.673
	s15.673-6.792,15.673-15.673V168.098v-0.522C435.722,167.053,435.722,166.531,435.722,166.531z M217.861,327.445
	c-40.751,0-82.024-6.792-121.208-19.853v-92.473l115.461,44.931c2.09,0.522,3.657,1.045,5.747,1.045c2.09,0,3.657-0.522,5.747-1.045
	l114.939-44.931v92.473C299.363,320.653,258.612,327.445,217.861,327.445z M217.861,228.702l-128-50.155l0,0l-29.78-11.494
	l157.78-57.992l157.78,57.992L217.861,228.702z"/>
<g>
</g>
<g>
</g>
<g>
</g>
<g>
</g>
<g>
</g>
<g>
</g>
<g>
</g>
<g>
</g>
<g>
</g>
<g>
</g>
<g>
</g>
<g>
</g>
<g>
</g>
<g>
</g>
<g>
</g>
</svg>
