<svg xmlns="http://www.w3.org/2000/svg" width="159.81" height="138.561" viewBox="0 0 159.81 138.561">
  <g id="Group_960" data-name="Group 960" transform="translate(-260 -246.348)">
    <path id="Path_576" data-name="Path 576" d="M680.523,283.2l-.293-.442-9.974-10.392a1.653,1.653,0,0,1,.874-2.491,10.514,10.514,0,0,0,4.187-2.446,10.19,10.19,0,1,0-14.085-14.73,10.4,10.4,0,0,0-2.628,4.071,1.654,1.654,0,0,1-2.526.762L646.14,247.1l-.431-.311a1.644,1.644,0,0,0-2.281.031L631.9,257.88a1.555,1.555,0,0,1-1.638-1.112c-.979-3.387-3.8-6.312-8.576-7.236a4.14,4.14,0,0,0-1.506-.013c-9.786,1.721-12.306,11.894-7.046,17.414a9.594,9.594,0,0,0,3.89,2.481,1.541,1.541,0,0,1,.981,1.791l-11.593,11.123a1.645,1.645,0,0,0-.084,2.333l10.484,10.93.187.145.062.066a1.652,1.652,0,0,0,2.769-.841c.961-3.694,4.014-6.99,9.112-7.993a10.2,10.2,0,0,1,2.846.189,10.2,10.2,0,0,1,7.782,8.146,10.015,10.015,0,0,1,.068,2.849c-1.236,5.048-4.667,7.95-8.4,8.737a1.656,1.656,0,0,0-.962,2.732l.063.065.138.2,10.443,10.961a1.651,1.651,0,0,0,2.337.022l11.631-11.088a1.548,1.548,0,0,1,1.747,1.064,9.614,9.614,0,0,0,2.307,4c5.278,5.5,15.547,3.441,17.71-6.255a4.116,4.116,0,0,0,.052-1.505c-.709-4.816-3.505-7.766-6.84-8.9a1.549,1.549,0,0,1-1.037-1.685l11.561-11.019A1.655,1.655,0,0,0,680.523,283.2Z" transform="translate(-261.105)" fill="#fdca3b"/>
    <path id="Path_577" data-name="Path 577" d="M537.725,589.5h.088l.239.035,15.139.066a1.656,1.656,0,0,0,1.636-1.672l.065-16.07a1.546,1.546,0,0,1,1.976-.521,9.635,9.635,0,0,0,4.482,1.107c7.624.009,13.253-8.825,7.758-17.107a4.219,4.219,0,0,0-1.047-1.081c-3.965-2.824-8.024-2.85-11.151-1.226a1.556,1.556,0,0,1-1.934-.424l.064-15.969a1.646,1.646,0,0,0-1.549-1.672l-.525-.1-14.4-.009a1.65,1.65,0,0,1-1.187-2.355,10.523,10.523,0,0,0,1.132-4.71,10.19,10.19,0,1,0-20.379-.052,10.417,10.417,0,0,0,1.118,4.718,1.658,1.658,0,0,1-1.206,2.352l-14.409-.066-.52.1a1.626,1.626,0,0,0-1.394.963,2.423,2.423,0,0,1,.143.8l-.027,16.489-.9-.179a1.49,1.49,0,0,1-1.325-.026l-.279-.123a11.173,11.173,0,0,0-1.5.114l-.132.017-.131-.022a8.81,8.81,0,0,0-1.566-.2,9.23,9.23,0,0,0-9.024,8.212,9.5,9.5,0,0,0-.086,1.217,11.129,11.129,0,0,0,1.406,5.24c.207.39.413.784.673,1.177a3.324,3.324,0,0,0,.84.862,10.557,10.557,0,0,0,6.143,2.11,10.2,10.2,0,0,0,1.526-.127l.132-.026.131.022c.421.069.749.135,1.053.171.256-.105.514-.21.762-.342a1.481,1.481,0,0,1,1.528.109l.721-.145-.026,16.739a2.672,2.672,0,0,1-.087.626,1.613,1.613,0,0,0,1.449.949l15.143.01.232-.031h.091a1.653,1.653,0,0,0,1.311-2.583c-2-3.248-2.256-7.73.554-12.1a10.128,10.128,0,0,1,2.105-1.922,10.216,10.216,0,0,1,11.266.027,10.205,10.205,0,0,1,2.1,1.934c2.788,4.386,2.5,8.868.485,12.108A1.656,1.656,0,0,0,537.725,589.5Z" transform="translate(-171.273 -204.69)" fill="#51c46d"/>
    <path id="Path_578" data-name="Path 578" d="M312.866,367.1l-.034.088-.015.031-.087.345a.864.864,0,0,0,.656.81l14.3-.025a2.234,2.234,0,0,1,.556.1v0a2.388,2.388,0,0,1,1.339.482l.091-.451.065-16.069a1.551,1.551,0,0,1,1.976-.521,9.615,9.615,0,0,0,4.48,1.107c7.628.009,13.255-8.825,7.759-17.107a4.263,4.263,0,0,0-1.046-1.081c-3.964-2.824-8.026-2.85-11.155-1.225a1.556,1.556,0,0,1-1.932-.425l.068-15.969a1.652,1.652,0,0,0-1.553-1.672l-.524-.1-14.4-.01a1.65,1.65,0,0,1-1.191-2.355,10.487,10.487,0,0,0,1.137-4.711,10.191,10.191,0,1,0-20.382-.052A10.438,10.438,0,0,0,294.09,313a1.65,1.65,0,0,1-1.2,2.346l-14.41-.061-.521.1a1.648,1.648,0,0,0-1.558,1.669l-.014,15.968a1.552,1.552,0,0,1-1.935.412c-3.12-1.638-7.183-1.633-11.161,1.173a4.234,4.234,0,0,0-1.053,1.077c-5.54,8.251.05,17.111,7.675,17.141a9.561,9.561,0,0,0,4.484-1.086,1.543,1.543,0,0,1,1.973.535l-.012,16.069a1.693,1.693,0,0,0,.11.569,2.41,2.41,0,0,1,1.33-.468v0a2.22,2.22,0,0,1,.557-.1l14.3.025a.856.856,0,0,0,.652-.8l-.084-.35-.016-.039-.019-.039-.019-.048a11.224,11.224,0,0,1-1.161-4.9h0V362.1a11.281,11.281,0,0,1,.489-3.126,10.79,10.79,0,0,1,10.289-7.936l.259,0,.218,0a10.793,10.793,0,0,1,10.288,7.936,11.3,11.3,0,0,1,.485,3.13v.022A11.2,11.2,0,0,1,312.866,367.1Z" transform="translate(0 -39.024)" fill="#3598db"/>
    <path id="Path_579" data-name="Path 579" d="M320.65,555.774a10.571,10.571,0,0,1,7.034-2.718l0,.805v-.805a9.914,9.914,0,0,1,1.76.205,13.588,13.588,0,0,1,1.628-.122q.4,0,.8.038l.02-14.541a.818.818,0,0,0-.71-.836l-.054-.013-.124,0-.119-.043-.242-.048-14.476.025-.07-.013a2.477,2.477,0,0,1-2.018-2.228l-.04-.219a2.379,2.379,0,0,1,.243-1.029h-.008l.033-.083.019-.026a9.618,9.618,0,0,0,1.013-4.295V529.8a9.672,9.672,0,0,0-.421-2.67,9.147,9.147,0,0,0-8.7-6.745l-.211,0h-.046l-.219,0a8.751,8.751,0,0,0-5.184,1.716,9.461,9.461,0,0,0-3.517,5.029,10.9,10.9,0,0,0-.323,1.51,7.66,7.66,0,0,0-.1,1.151v.031a9.536,9.536,0,0,0,1.02,4.29l.02.036.014.039.02.048-.006,0a2.456,2.456,0,0,1,.235,1.02l-.037.2a2.475,2.475,0,0,1-2.018,2.245l-.069.013-14.476-.025-.118.022-.126.026-.118.043-.126,0a.828.828,0,0,0-.768.845l.028,16.266-.189.232a2.427,2.427,0,0,1-1.859.889,2.333,2.333,0,0,1-1.095-.272,8.838,8.838,0,0,0-4.089-1,10.672,10.672,0,0,0-6.207,2.149,3.28,3.28,0,0,0-.841.862,11.5,11.5,0,0,0-2.079,6.413,9.28,9.28,0,0,0,9.1,9.428h.016a8.8,8.8,0,0,0,4.092-1,2.314,2.314,0,0,1,1.061-.263,2.438,2.438,0,0,1,1.966,1.037l.156.219.025,16.332a.828.828,0,0,0,.8.849l15.081-.026.239-.036h.149a.711.711,0,0,0,.535-.227.9.9,0,0,0,.215-.591l-.143-.5a11.207,11.207,0,0,1-1.671-5.91,13.126,13.126,0,0,1,2.191-7.079l.029-.043.029-.035a11.019,11.019,0,0,1,2.28-2.084l.02-.013.018-.013a12.121,12.121,0,0,1,6.047-1.817H306a12.1,12.1,0,0,1,6.043,1.817l.02.009.021.017a10.968,10.968,0,0,1,2.277,2.084l.031.039.028.038a13.106,13.106,0,0,1,2.188,7.083,11.2,11.2,0,0,1-1.67,5.91l-.145.5a.892.892,0,0,0,.219.591.706.706,0,0,0,.535.227h.145l.058.009.18.026,15.086.026a.83.83,0,0,0,.8-.849l.026-14.748a8.2,8.2,0,0,1-1.058.075h0a8.4,8.4,0,0,1-1.527-.211,10.858,10.858,0,0,1-1.613.135,12.168,12.168,0,0,1-6.842-2.254l-.259-.158a5.106,5.106,0,0,1-1.255-1.3,14.249,14.249,0,0,1-1.842-3.914c-.118-.406-.207-.814-.283-1.216a11.843,11.843,0,0,1-.23-2.2A11.164,11.164,0,0,1,320.65,555.774Z" transform="translate(-2.819 -206.87)" fill="#ec4551"/>
  </g>
</svg>