<?xml version="1.0" encoding="iso-8859-1"?>
<!-- Generator: Adobe Illustrator 19.0.0, SVG Export Plug-In . SVG Version: 6.00 Build 0)  -->
<svg version="1.1" id="Capa_1" xmlns="http://www.w3.org/2000/svg" xmlns:xlink="http://www.w3.org/1999/xlink" x="0px" y="0px"
	 viewBox="0 0 396.016 396.016" style="enable-background:new 0 0 396.016 396.016;" xml:space="preserve">
<g>
	<path style="fill:#D4E1F4;" d="M198.008,86.727c36.571,0,65.829,29.78,65.829,66.351s-29.257,66.351-65.829,66.351
		s-65.829-29.78-65.829-66.351S161.437,86.727,198.008,86.727z"/>
	<path style="fill:#D4E1F4;" d="M332.278,321.306c-33.437,36.049-80.98,59.037-134.269,59.037S97.176,357.355,63.739,321.306
		C137.927,224.653,258.09,224.653,332.278,321.306z"/>
</g>
<path style="fill:#4DCFE0;" d="M380.343,198.008c0,47.543-18.286,90.906-48.065,123.298c-74.188-96.653-194.351-96.653-268.539,0
	c-29.78-32.392-48.065-75.755-48.065-123.298c0-100.833,81.502-182.335,182.335-182.335S380.343,97.176,380.343,198.008z
	 M263.837,153.078c0-36.571-29.257-66.351-65.829-66.351s-65.829,29.78-65.829,66.351s29.257,66.351,65.829,66.351
	S263.837,189.649,263.837,153.078z"/>
<g>
	<path style="fill:#3A2C51;" d="M198.008,0C88.816,0,0,88.816,0,198.008c0,49.633,18.286,97.175,52.245,133.747l0,0
		c38.139,41.273,89.861,64.261,145.763,64.261s107.624-22.988,145.763-64.261c33.437-36.571,52.245-84.114,52.245-133.747
		C396.016,88.816,307.2,0,198.008,0z M198.008,31.347c91.951,0,166.661,74.71,166.661,166.661c0,36.049-11.494,70.531-32.392,98.743
		c-37.094-41.273-84.114-63.739-134.269-63.739s-96.653,22.465-134.269,63.739c-20.898-28.735-32.392-63.216-32.392-98.743
		C31.347,106.057,106.057,31.347,198.008,31.347z M85.159,320.261c31.347-36.049,71.053-55.902,112.849-55.902
		s81.502,19.853,112.849,55.902c-31.347,28.735-70.531,44.408-112.849,44.408S115.984,348.996,85.159,320.261z"/>
	<path style="fill:#3A2C51;" d="M198.008,235.102c-44.931,0-81.502-36.571-81.502-82.024s36.571-82.024,81.502-82.024
		s81.502,36.571,81.502,82.024S242.939,235.102,198.008,235.102z M198.008,102.4c-27.69,0-50.155,22.988-50.155,50.678
		s22.465,50.678,50.155,50.678s50.155-22.988,50.155-50.678S225.698,102.4,198.008,102.4z"/>
</g>
<g>
</g>
<g>
</g>
<g>
</g>
<g>
</g>
<g>
</g>
<g>
</g>
<g>
</g>
<g>
</g>
<g>
</g>
<g>
</g>
<g>
</g>
<g>
</g>
<g>
</g>
<g>
</g>
<g>
</g>
</svg>
