<svg xmlns="http://www.w3.org/2000/svg" width="22" height="20.464" viewBox="0 0 22 20.464"><defs><style>.a{fill:#d5eeff;}.b{fill:none;stroke:#d5eeff;}.c{fill:#3598db;}</style></defs><g transform="translate(0.074 -0.007)"><rect class="a" width="22" height="16" rx="2" transform="translate(-0.074 4.007)"/><path class="b" d="M8.03,2.049v2.6h5.889v-2.6" transform="translate(21.95 5.752) rotate(180)"/><path class="c" d="M20.1,3.661H14.983V1.834A1.829,1.829,0,0,0,13.156.007H8.77A1.829,1.829,0,0,0,6.943,1.834V3.661H1.827A1.829,1.829,0,0,0,0,5.488V18.644a1.829,1.829,0,0,0,1.827,1.827H20.1a1.829,1.829,0,0,0,1.827-1.827V5.488A1.829,1.829,0,0,0,20.1,3.661ZM7.674,1.834a1.1,1.1,0,0,1,1.1-1.1h4.385a1.1,1.1,0,0,1,1.1,1.1V3.661h-.731V1.834a.365.365,0,0,0-.365-.365H8.77a.365.365,0,0,0-.365.365V3.661H7.674ZM9.136,3.661V2.2H12.79V3.661ZM.731,5.488a1.1,1.1,0,0,1,1.1-1.1H20.1a1.1,1.1,0,0,1,1.1,1.1V9.27l-8.4,3.7v-.9a.365.365,0,0,0-.365-.365H9.5a.365.365,0,0,0-.365.365v.9l-8.4-3.7Zm11.328,7.674H9.867v-.731h2.193Zm-2.193.731h2.193v1.1a1.1,1.1,0,1,1-2.193,0ZM20.1,19.74H1.827a1.1,1.1,0,0,1-1.1-1.1V10.068l8.4,3.7V14.99a1.827,1.827,0,0,0,3.654,0V13.766l8.4-3.7v8.575a1.1,1.1,0,0,1-1.1,1.1Zm0,0"/><path class="c" d="M14.5,20.007h.731v.731H14.5Zm0,0" transform="translate(-3.903 -5.383)"/></g></svg>