<svg xmlns="http://www.w3.org/2000/svg" xmlns:xlink="http://www.w3.org/1999/xlink" width="23" height="23" viewBox="0 0 23 23"><defs><style>.a{fill:#fff;}.b{clip-path:url(#a);}.c{fill:#3598db;}</style><clipPath id="a"><rect class="a" width="23" height="23" transform="translate(175 589)"/></clipPath></defs><g class="b" transform="translate(-175 -589)"><g transform="translate(175 589)"><path class="c" d="M20.616,3H19.172V1.851a.6.6,0,1,0-1.2,0V3H12.1V1.851a.6.6,0,1,0-1.2,0V3H4.973V1.851a.6.6,0,1,0-1.2,0V3H2.39A2.424,2.424,0,0,0,0,5.422V19.351a2.391,2.391,0,0,0,2.39,2.4H20.61A2.389,2.389,0,0,0,23,19.357V5.422A2.415,2.415,0,0,0,20.616,3Zm1.192,16.356a1.2,1.2,0,0,1-1.186,1.2H2.39A1.192,1.192,0,0,1,1.2,19.357V5.422A1.219,1.219,0,0,1,2.39,4.194H3.774v.869a.6.6,0,0,0,1.2,0V4.194H10.9v.869a.6.6,0,0,0,1.2,0V4.194h5.871v.869a.6.6,0,0,0,1.2,0V4.194h1.444a1.219,1.219,0,0,1,1.192,1.228Z"/><path class="c" d="M9.927,8.088H8.879a.6.6,0,1,0,0,1.2H9.927a.6.6,0,0,0,0-1.2Z"/><path class="c" d="M14.1,8.088H13.049a.6.6,0,0,0,0,1.2H14.1a.6.6,0,0,0,0-1.2Z"/><path class="c" d="M18.3,8.088H17.254a.6.6,0,0,0,0,1.2H18.3a.6.6,0,0,0,0-1.2Z"/><path class="c" d="M9.927,12.222H8.879a.6.6,0,1,0,0,1.2H9.927a.6.6,0,1,0,0-1.2Z"/><path class="c" d="M5.728,12.222H4.673a.6.6,0,1,0,0,1.2H5.722a.6.6,0,0,0,.006-1.2Z"/><path class="c" d="M14.1,12.222H13.049a.6.6,0,0,0,0,1.2H14.1a.6.6,0,0,0,0-1.2Z"/><path class="c" d="M18.3,12.222H17.254a.6.6,0,1,0,0,1.2H18.3a.6.6,0,0,0,0-1.2Z"/><path class="c" d="M9.927,16.3H8.879a.6.6,0,1,0,0,1.2H9.927a.6.6,0,1,0,0-1.2Z"/><path class="c" d="M5.728,16.3H4.673a.6.6,0,1,0,0,1.2H5.722a.6.6,0,0,0,.006-1.2Z"/><path class="c" d="M14.1,16.3H13.049a.6.6,0,0,0,0,1.2H14.1a.6.6,0,1,0,0-1.2Z"/></g></g></svg>