<svg xmlns="http://www.w3.org/2000/svg" xmlns:xlink="http://www.w3.org/1999/xlink" width="28" height="28" viewBox="0 0 28 28"><defs><style>.a{fill:#fff;}.b{clip-path:url(#a);}.c{fill:#0f9d58;}</style><clipPath id="a"><rect class="a" width="28" height="28" transform="translate(382 760)"/></clipPath></defs><g class="b" transform="translate(-382 -760)"><g transform="translate(382.322 760)"><path class="c" d="M12.45,19.551a.827.827,0,0,0,1.169,0L16.571,16.6A.827.827,0,1,0,15.4,15.43L13.035,17.8l-1.079-1.079a.827.827,0,0,0-1.169,1.169Zm0,0"/><path class="c" d="M13.679,24.054a6.563,6.563,0,1,0-6.563-6.563A6.571,6.571,0,0,0,13.679,24.054Zm0-11.473a4.91,4.91,0,1,1-4.91,4.91,4.915,4.915,0,0,1,4.91-4.91Zm0,0"/><path class="c" d="M24.683,1.76H23.175V.827a.827.827,0,1,0-1.653,0V1.76H19.9V.827a.827.827,0,0,0-1.654,0V1.76H9.114V.827a.827.827,0,0,0-1.654,0V1.76H5.836V.827a.827.827,0,0,0-1.654,0V1.76H2.674A2.677,2.677,0,0,0,0,4.434V25.326A2.677,2.677,0,0,0,2.674,28H24.683a2.677,2.677,0,0,0,2.674-2.674V4.434A2.677,2.677,0,0,0,24.683,1.76ZM25.7,25.326a1.021,1.021,0,0,1-1.02,1.02H2.674a1.022,1.022,0,0,1-1.02-1.02V8.635H25.7ZM1.653,4.434a1.021,1.021,0,0,1,1.02-1.02H4.182v.934a.827.827,0,0,0,1.654,0V3.414H7.46v.934a.827.827,0,0,0,1.654,0V3.414h9.129v.934a.827.827,0,0,0,1.654,0V3.414h1.625v.934a.827.827,0,0,0,1.654,0V3.414h1.508a1.021,1.021,0,0,1,1.02,1.02V6.981H1.653Zm0,0"/></g></g></svg>