<svg xmlns="http://www.w3.org/2000/svg" xmlns:xlink="http://www.w3.org/1999/xlink" width="140" height="96" viewBox="0 0 140 96">
  <defs>
    <clipPath id="clip-path">
      <rect id="Rectangle_682" data-name="Rectangle 682" width="140" height="96" transform="translate(371 1555)" fill="#fff"/>
    </clipPath>
  </defs>
  <g id="Data" transform="translate(-371 -1555)" clip-path="url(#clip-path)">
    <g id="undraw_Data_re_80ws" transform="translate(371.975 1555)">
      <path id="Path_1095" data-name="Path 1095" d="M152.709,86.1H64.364a2.277,2.277,0,0,1-2.275-2.275V29.35a1.668,1.668,0,0,1,1.666-1.667h89.533a1.7,1.7,0,0,1,1.7,1.7V83.825A2.277,2.277,0,0,1,152.709,86.1Z" transform="translate(-40.673 -25.78)" fill="#f2f2f2"/>
      <path id="Path_1096" data-name="Path 1096" d="M151.632,86.005H69.3a2.125,2.125,0,0,1-2.189-2.05V36.518A1.575,1.575,0,0,1,68.73,35h83.442a1.6,1.6,0,0,1,1.649,1.545V83.956A2.125,2.125,0,0,1,151.632,86.005Z" transform="translate(-42.818 -28.907)" fill="#fff"/>
      <path id="Path_1097" data-name="Path 1097" d="M154.928,27.8H62.034V26.64a2.285,2.285,0,0,1,2.283-2.282h88.329a2.285,2.285,0,0,1,2.283,2.282Z" transform="translate(-40.649 -24.359)" fill="#ccc"/>
      <circle id="Ellipse_12" data-name="Ellipse 12" cx="0.591" cy="0.591" r="0.591" transform="translate(24.943 1.133)" fill="#fff"/>
      <circle id="Ellipse_13" data-name="Ellipse 13" cx="0.591" cy="0.591" r="0.591" transform="translate(27.184 1.133)" fill="#fff"/>
      <circle id="Ellipse_14" data-name="Ellipse 14" cx="0.591" cy="0.591" r="0.591" transform="translate(29.426 1.133)" fill="#fff"/>
      <path id="Path_1098" data-name="Path 1098" d="M149.471,84.076H85.664a2.415,2.415,0,0,1-2.413-2.413V50.9a1.806,1.806,0,0,1,1.8-1.8H150.05a1.835,1.835,0,0,1,1.833,1.833V81.663A2.415,2.415,0,0,1,149.471,84.076Zm-64.415-34.7A1.53,1.53,0,0,0,83.528,50.9V81.663A2.139,2.139,0,0,0,85.664,83.8h63.806a2.139,2.139,0,0,0,2.137-2.137V50.929a1.559,1.559,0,0,0-1.557-1.557Z" transform="translate(-49.72 -34.934)" fill="#ccc"/>
      <path id="Path_1099" data-name="Path 1099" d="M89.672,83.485h59.395a2.206,2.206,0,0,0,2.206-2.206V55.562a2.206,2.206,0,0,0-2.206-2.206H89.672a2.206,2.206,0,0,0-2.206,2.206V81.279A2.206,2.206,0,0,0,89.672,83.485Z" transform="translate(-51.521 -36.755)" fill="#f2f2f2"/>
      <circle id="Ellipse_15" data-name="Ellipse 15" cx="1.241" cy="1.241" r="1.241" transform="translate(43.653 21.602)" fill="#ccc"/>
      <circle id="Ellipse_16" data-name="Ellipse 16" cx="1.241" cy="1.241" r="1.241" transform="translate(43.653 26.289)" fill="#ccc"/>
      <circle id="Ellipse_17" data-name="Ellipse 17" cx="1.241" cy="1.241" r="1.241" transform="translate(43.653 30.976)" fill="#ccc"/>
      <circle id="Ellipse_18" data-name="Ellipse 18" cx="1.241" cy="1.241" r="1.241" transform="translate(43.653 35.663)" fill="#ccc"/>
      <path id="Path_1100" data-name="Path 1100" d="M154.637,64.293H113.831a.138.138,0,1,1,0-.276h40.806a.138.138,0,0,1,0,.276Z" transform="translate(-62.734 -41.312)" fill="#ccc"/>
      <path id="Path_1101" data-name="Path 1101" d="M154.637,72.48H113.831a.138.138,0,1,1,0-.276h40.806a.138.138,0,0,1,0,.276Z" transform="translate(-62.734 -44.812)" fill="#ccc"/>
      <path id="Path_1102" data-name="Path 1102" d="M154.637,80.667H113.831a.138.138,0,1,1,0-.276h40.806a.138.138,0,1,1,0,.276Z" transform="translate(-62.734 -48.312)" fill="#ccc"/>
      <path id="Path_1103" data-name="Path 1103" d="M154.637,88.854H113.831a.138.138,0,1,1,0-.276h40.806a.138.138,0,1,1,0,.276Z" transform="translate(-62.734 -51.812)" fill="#ccc"/>
      <path id="Path_1104" data-name="Path 1104" d="M123.919,93.439h-4a.69.69,0,0,1-.689-.689V89.027a.69.69,0,0,1,.689-.689h4a.69.69,0,0,1,.689.689v3.722A.69.69,0,0,1,123.919,93.439Z" transform="translate(-65.101 -51.709)" fill="#fc6570"/>
      <path id="Path_1105" data-name="Path 1105" d="M139.571,89.939h-4a.69.69,0,0,1-.689-.689V80.84a.69.69,0,0,1,.689-.689h4a.69.69,0,0,1,.689.689v8.409A.69.69,0,0,1,139.571,89.939Z" transform="translate(-71.792 -48.209)" fill="#fc6570"/>
      <path id="Path_1106" data-name="Path 1106" d="M155.463,86.439h-4a.69.69,0,0,1-.689-.689v-13.1a.69.69,0,0,1,.689-.689h4a.69.69,0,0,1,.689.689v13.1A.69.69,0,0,1,155.463,86.439Z" transform="translate(-78.586 -44.709)" fill="#fc6570"/>
      <path id="Path_1107" data-name="Path 1107" d="M171.838,83.042h-4a.69.69,0,0,1-.689-.689V64.706a.69.69,0,0,1,.689-.689h4a.69.69,0,0,1,.689.689V82.352a.69.69,0,0,1-.689.689Z" transform="translate(-85.586 -41.312)" fill="#fc6570"/>
      <path id="Path_1108" data-name="Path 1108" d="M154.637,97.041H113.831a.138.138,0,1,1,0-.276h40.806a.138.138,0,1,1,0,.276Z" transform="translate(-62.734 -55.312)" fill="#3f3d56"/>
      <path id="Path_1109" data-name="Path 1109" d="M216.349,140.3a1.386,1.386,0,0,1,2.112-.24l4.378-2.259-.272,2.545-4.115,1.755a1.394,1.394,0,0,1-2.1-1.8Z" transform="translate(-106.517 -72.855)" fill="#ffb8b8"/>
      <path id="Path_1110" data-name="Path 1110" d="M222.667,134.35a.621.621,0,0,1-.21-.3l-.348-1.125a.622.622,0,0,1,.219-.678l3.548-2.68,3.843-7.129a2,2,0,0,1,3.157,2.451L230.69,129.5a6.393,6.393,0,0,1-3.235,3.129l-4.158,1.8a.621.621,0,0,1-.506-.005A.614.614,0,0,1,222.667,134.35Z" transform="translate(-109.069 -65.954)" fill="#3f3d56"/>
      <circle id="Ellipse_19" data-name="Ellipse 19" cx="3.386" cy="3.386" r="3.386" transform="translate(120.518 46.731)" fill="#ffb8b8"/>
      <path id="Path_1111" data-name="Path 1111" d="M212.162,160.256h-1.69l-.8-6.519h2.495Z" transform="translate(-89.631 -65.721)" fill="#ffb8b8"/>
      <path id="Path_1112" data-name="Path 1112" d="M207.43,164.28h3.26v2.052h-5.312A2.052,2.052,0,0,1,207.43,164.28Z" transform="translate(-87.797 -70.228)" fill="#2f2e41"/>
      <path id="Path_1113" data-name="Path 1113" d="M221.793,160.256H220.1l-.8-6.519h2.495Z" transform="translate(-93.749 -65.721)" fill="#ffb8b8"/>
      <path id="Path_1114" data-name="Path 1114" d="M217.062,164.28h3.26v2.052H215.01A2.052,2.052,0,0,1,217.062,164.28Z" transform="translate(-91.915 -70.228)" fill="#2f2e41"/>
      <path id="Path_1115" data-name="Path 1115" d="M240.728,169.5h-1.981a.621.621,0,0,1-.6-.459L235.3,158.465a.069.069,0,0,0-.135.022l.576,10.028a.62.62,0,0,1-.671.654l-2.226-.186a.622.622,0,0,1-.565-.547l-2.028-21.057.785.471,7.352-1.248,2.958,22.193a.621.621,0,0,1-.615.7Z" transform="translate(-112.56 -76.617)" fill="#2f2e41"/>
      <path id="Path_1116" data-name="Path 1116" d="M232.6,138.169a4.541,4.541,0,0,1-2.3-.648.618.618,0,0,1-.295-.633c.259-1.583,1.611-9.706,2.841-14.134a3.5,3.5,0,0,1,3.293-2.887,4.685,4.685,0,0,1,4.881,4.3c.4,4.473-1.231,10.829-1.953,13.354a.62.62,0,0,1-.977.318l-1.47-1.143a.487.487,0,0,0-.623.026A5.049,5.049,0,0,1,232.6,138.169Z" transform="translate(-112.451 -65.184)" fill="#3f3d56"/>
      <path id="Path_1117" data-name="Path 1117" d="M217.94,106.851l1.241,5.239-1.792,4.411,1.241-4.273Z" transform="translate(-92.932 -45.678)" opacity="0.2"/>
      <path id="Path_1118" data-name="Path 1118" d="M240.587,111.306a2.28,2.28,0,0,0,.881-.159c.123-.048.251-.087.374-.134a3.036,3.036,0,0,0,1.828-2.741,3.948,3.948,0,0,0-1.473-3.04,5.7,5.7,0,0,0-3.217-1.216,3.645,3.645,0,0,0-3.359,1.264,1.1,1.1,0,0,0-.206.949.607.607,0,0,0,.171.263c.312.278.623.069.942.051a1.041,1.041,0,0,1,.972.744,2.24,2.24,0,0,1-.035,1.295,3.236,3.236,0,0,0-.163.787.792.792,0,0,0,.328.7.9.9,0,0,0,.906-.1,6.287,6.287,0,0,1,.805-.516.712.712,0,0,1,.864.175.957.957,0,0,1,.109.316C240.469,110.645,240.433,110.6,240.587,111.306Z" transform="translate(-114.751 -58.405)" fill="#2f2e41"/>
      <path id="Path_1119" data-name="Path 1119" d="M218.752,161.98l-21.2-7.384a1.455,1.455,0,0,1-.895-1.851l5.51-15.82a1.066,1.066,0,0,1,1.356-.655L225.44,143.9a1.085,1.085,0,0,1,.667,1.379l-5.5,15.8a1.455,1.455,0,0,1-1.851.895Z" transform="translate(-98.165 -72.174)" fill="#e6e6e6"/>
      <path id="Path_1120" data-name="Path 1120" d="M200.732,155.151l18.54,6.457a1.41,1.41,0,0,0,1.795-.868l4.449-12.775a1.41,1.41,0,0,0-.868-1.795l-18.54-6.457a1.41,1.41,0,0,0-1.795.868l-4.449,12.775A1.41,1.41,0,0,0,200.732,155.151Z" transform="translate(-99.537 -73.638)" fill="#fff"/>
      <path id="Path_1121" data-name="Path 1121" d="M208.786,149.846l-.918-.32a.2.2,0,0,1-.122-.253l.32-.918a.2.2,0,0,1,.253-.122l.918.32a.2.2,0,0,1,.122.253l-.32.918A.2.2,0,0,1,208.786,149.846Z" transform="translate(-102.935 -77.309)" fill="#fc6570"/>
      <path id="Path_1122" data-name="Path 1122" d="M207.338,154l-.918-.32a.2.2,0,0,1-.122-.253l.32-.918a.2.2,0,0,1,.253-.122l.918.32a.2.2,0,0,1,.122.253l-.32.918a.2.2,0,0,1-.253.122Z" transform="translate(-102.316 -79.085)" fill="#3f3d56"/>
      <path id="Path_1123" data-name="Path 1123" d="M205.891,158.157l-.918-.32a.2.2,0,0,1-.122-.253l.32-.918a.2.2,0,0,1,.253-.122l.918.32a.2.2,0,0,1,.122.253l-.32.918A.2.2,0,0,1,205.891,158.157Z" transform="translate(-101.698 -80.862)" fill="#ccc"/>
      <path id="Path_1124" data-name="Path 1124" d="M216.944,152.474l-4.424-1.541a.2.2,0,0,1,.131-.376l4.424,1.541a.2.2,0,1,1-.131.376Z" transform="translate(-104.924 -78.303)" fill="#ccc"/>
      <path id="Path_1125" data-name="Path 1125" d="M215.5,156.629l-4.424-1.541a.2.2,0,1,1,.131-.376l4.424,1.541a.2.2,0,1,1-.131.376Z" transform="translate(-104.306 -80.079)" fill="#ccc"/>
      <path id="Path_1126" data-name="Path 1126" d="M214.05,160.784l-4.424-1.541a.2.2,0,1,1,.131-.376l4.424,1.541a.2.2,0,0,1-.131.376Z" transform="translate(-103.687 -81.856)" fill="#ccc"/>
      <path id="Path_1127" data-name="Path 1127" d="M235.083,160.335c.032-.077.063-.156.09-.236a4.169,4.169,0,0,0-2.566-5.308l-1.454,4.175Z" transform="translate(-112.947 -80.118)" fill="#fc6570"/>
      <path id="Path_1128" data-name="Path 1128" d="M227.364,159.237l1.454-4.175a4.169,4.169,0,1,0,2.475,5.544Z" transform="translate(-109.58 -80.134)" fill="#3f3d56"/>
      <path id="Path_1129" data-name="Path 1129" d="M239.5,147.607a1.386,1.386,0,0,1,1.514-1.492l2.05-4.479,1.357,2.171-2.155,3.921a1.394,1.394,0,0,1-2.766-.12Z" transform="translate(-116.515 -74.494)" fill="#ffb8b8"/>
      <path id="Path_1130" data-name="Path 1130" d="M244.359,137.56a.621.621,0,0,1-.354-.11l-.968-.67a.622.622,0,0,1-.246-.669l1.138-4.3-1.376-7.981a2,2,0,0,1,4-.019l1.127,4.98a6.393,6.393,0,0,1-.614,4.458l-2.158,3.985a.621.621,0,0,1-.4.308A.613.613,0,0,1,244.359,137.56Z" transform="translate(-117.82 -66.024)" fill="#3f3d56"/>
      <path id="Path_1131" data-name="Path 1131" d="M244.373,192.153H218.18a.138.138,0,1,1,0-.276h26.193a.138.138,0,1,1,0,.276Z" transform="translate(-107.342 -95.972)" fill="#ccc"/>
      <path id="Path_1132" data-name="Path 1132" d="M118.121,160.136h1.69l.8-6.519h-2.494Z" transform="translate(-50.496 -65.67)" fill="#a0616a"/>
      <path id="Path_1133" data-name="Path 1133" d="M142.05,188.4h3.329a2.121,2.121,0,0,1,2.121,2.121v.069h-5.45Z" transform="translate(-74.856 -94.485)" fill="#2f2e41"/>
      <path id="Path_1134" data-name="Path 1134" d="M106.322,160.136h1.69l.8-6.519h-2.494Z" transform="translate(-45.452 -65.67)" fill="#a0616a"/>
      <path id="Path_1135" data-name="Path 1135" d="M130.251,188.4h3.329a2.121,2.121,0,0,1,2.121,2.121v.069h-5.45Z" transform="translate(-69.812 -94.485)" fill="#2f2e41"/>
      <circle id="Ellipse_20" data-name="Ellipse 20" cx="3.386" cy="3.386" r="3.386" transform="translate(64.577 42.562)" fill="#a0616a"/>
      <path id="Path_1136" data-name="Path 1136" d="M139.742,165.616h-3.136a.62.62,0,0,1-.62-.628l.182-14.893a.207.207,0,0,0-.412-.028l-1.825,15a.621.621,0,0,1-.616.545h-3.167a.62.62,0,0,1-.618-.669l2.091-26.755.057-.006L141.69,137.1l-1.328,27.92A.62.62,0,0,1,139.742,165.616Z" transform="translate(-69.502 -72.557)" fill="#2f2e41"/>
      <path id="Path_1137" data-name="Path 1137" d="M132.913,129.4a.62.62,0,0,1-.618-.6,49.126,49.126,0,0,1,.94-11.843,5.642,5.642,0,0,1,5.21-4.251h0a5.677,5.677,0,0,1,5.591,3.588c1.83,4.646,3.559,10.373,1.4,11.272-2.825,1.177-10.274,1.7-12.489,1.835Z" transform="translate(-70.673 -62.123)" fill="#3f3d56"/>
      <path id="Path_1138" data-name="Path 1138" d="M154.759,96.809a1.45,1.45,0,0,0,.172.151l-.355,6.828-1.478.757.851,2.381,2.748-1.086a1.1,1.1,0,0,0,.693-1.128l-.72-7.745a1.447,1.447,0,1,0-1.909-.158Z" transform="translate(-79.578 -54.284)" fill="#a0616a"/>
      <path id="Path_1139" data-name="Path 1139" d="M152.156,110.962l1.04,2.956a.62.62,0,0,1-.467.815l-3.067.594a1.723,1.723,0,1,1-1.134-3.254l2.754-1.453a.62.62,0,0,1,.875.343Z" transform="translate(-77.13 -61.204)" fill="#3f3d56"/>
      <path id="Path_1140" data-name="Path 1140" d="M128.416,96.809a1.449,1.449,0,0,1-.172.151l.355,6.828,1.478.757-.851,2.381-2.747-1.086a1.1,1.1,0,0,1-.693-1.128l.72-7.745a1.447,1.447,0,1,1,1.909-.158Z" transform="translate(-67.901 -54.284)" fill="#a0616a"/>
      <path id="Path_1141" data-name="Path 1141" d="M130.21,110.59a.62.62,0,0,1,.516.029l2.754,1.453a1.723,1.723,0,0,1-1.134,3.254l-3.067-.594a.62.62,0,0,1-.467-.815l1.04-2.956A.62.62,0,0,1,130.21,110.59Z" transform="translate(-69.181 -61.204)" fill="#3f3d56"/>
      <path id="Path_1142" data-name="Path 1142" d="M141.324,100.665a2.225,2.225,0,0,1,1.246-2.091,2.46,2.46,0,0,0,1.392-2.7,2.973,2.973,0,0,0-3.626-1.728,6.694,6.694,0,0,0-1.139.529l-.954.512a9.893,9.893,0,0,0-1.176.694,3.9,3.9,0,0,0-1.554,3.657,5.219,5.219,0,0,0,2.277,3.427,3.851,3.851,0,0,0,1.56.694,2.073,2.073,0,0,0,1.646-.373,2.165,2.165,0,0,0,.379-2.291A1.661,1.661,0,0,1,141.324,100.665Z" transform="translate(-72.047 -54.14)" fill="#2f2e41"/>
      <path id="Path_1143" data-name="Path 1143" d="M146.128,192.153H119.935a.138.138,0,0,1,0-.276h26.193a.138.138,0,0,1,0,.276Z" transform="translate(-65.343 -95.972)" fill="#ccc"/>
      <path id="Path_1144" data-name="Path 1144" d="M68.506,134.406l-21.613,8.867a1.514,1.514,0,0,1-1.973-.825L38.3,126.32a1.109,1.109,0,0,1,.6-1.446l22.344-9.166a1.129,1.129,0,0,1,1.471.615l6.609,16.109a1.514,1.514,0,0,1-.825,1.973Z" transform="translate(-30.469 -63.374)" fill="#e6e6e6"/>
      <path id="Path_1145" data-name="Path 1145" d="M49.236,142.879l18.9-7.753a1.467,1.467,0,0,0,.8-1.914L63.593,120.19a1.467,1.467,0,0,0-1.914-.8l-18.9,7.753a1.467,1.467,0,0,0-.8,1.914l5.342,13.022A1.467,1.467,0,0,0,49.236,142.879Z" transform="translate(-32.029 -64.937)" fill="#fff"/>
      <rect id="Rectangle_683" data-name="Rectangle 683" width="0.3" height="0.05" transform="matrix(0.925, -0.38, 0.38, 0.925, 31.181, 58.919)" fill="#e6e6e6"/>
      <path id="Path_1146" data-name="Path 1146" d="M65.191,127.721l-.561.23-.019-.046.561-.23Zm-1.123.461-.561.23-.019-.046.561-.23Zm-1.123.461-.561.23-.019-.046.561-.23Zm-1.123.461-.561.23-.019-.046.561-.23Zm-1.123.461-.561.23-.019-.046.561-.23Zm-1.123.461-.561.23L59,130.208l.561-.23Zm-1.123.461-.561.23-.019-.046.561-.23Zm-1.123.461-.561.23-.019-.046.561-.23Zm-1.123.461-.561.23-.019-.046.561-.23Zm-1.123.461-.561.23-.019-.046.561-.23Zm-1.123.461-.561.23-.019-.046.561-.23Zm-1.123.461-.561.23-.019-.046.561-.23Zm-1.123.461-.561.23-.019-.046.561-.23Zm-1.123.461-.561.23-.019-.046.561-.23Zm-1.123.461-.561.23-.019-.046.561-.23Zm-1.123.461-.561.23-.019-.046.561-.23Z" transform="translate(-34.552 -68.525)" fill="#e6e6e6"/>
      <rect id="Rectangle_684" data-name="Rectangle 684" width="0.3" height="0.05" transform="matrix(0.925, -0.38, 0.38, 0.925, 12.379, 66.632)" fill="#e6e6e6"/>
      <rect id="Rectangle_685" data-name="Rectangle 685" width="0.3" height="0.05" transform="matrix(0.925, -0.38, 0.38, 0.925, 23.825, 66.968)" fill="#e6e6e6"/>
      <path id="Path_1147" data-name="Path 1147" d="M59.156,141.775,58.6,142l-.019-.046.553-.227Zm-1.106.454-.553.227-.019-.046.553-.227Zm-1.106.454-.553.227-.019-.046.553-.227Zm-1.106.454-.553.227-.019-.046.553-.227Zm-1.106.454-.553.227-.019-.046.553-.227Zm-1.106.454-.553.227-.019-.046.553-.227Zm-1.106.454-.553.227-.019-.046.553-.227Zm-1.106.454-.553.227-.019-.046.553-.227Z" transform="translate(-35.865 -74.533)" fill="#e6e6e6"/>
      <rect id="Rectangle_686" data-name="Rectangle 686" width="0.3" height="0.05" transform="matrix(0.925, -0.38, 0.38, 0.925, 14.146, 70.939)" fill="#e6e6e6"/>
      <rect id="Rectangle_687" data-name="Rectangle 687" width="0.3" height="0.05" transform="matrix(0.925, -0.38, 0.38, 0.925, 19.243, 71.228)" fill="#e6e6e6"/>
      <path id="Path_1148" data-name="Path 1148" d="M55.194,149.228l-.569.233-.019-.046.569-.233Zm-1.138.467-.569.233-.019-.046.569-.233Zm-1.138.467-.569.233-.019-.046.569-.233Z" transform="translate(-36.501 -77.72)" fill="#e6e6e6"/>
      <rect id="Rectangle_688" data-name="Rectangle 688" width="0.3" height="0.05" transform="matrix(0.925, -0.38, 0.38, 0.925, 14.982, 72.976)" fill="#e6e6e6"/>
      <rect id="Rectangle_689" data-name="Rectangle 689" width="0.3" height="0.05" transform="matrix(0.925, -0.38, 0.38, 0.925, 20.669, 74.706)" fill="#e6e6e6"/>
      <path id="Path_1149" data-name="Path 1149" d="M57.686,155.3l-.569.233-.019-.046.569-.233Zm-1.138.467-.569.233-.019-.046.569-.233Zm-1.138.467-.569.233-.019-.046.569-.233Z" transform="translate(-37.566 -80.316)" fill="#e6e6e6"/>
      <rect id="Rectangle_690" data-name="Rectangle 690" width="0.3" height="0.05" transform="matrix(0.925, -0.38, 0.38, 0.925, 16.409, 76.454)" fill="#e6e6e6"/>
      <path id="Path_1150" data-name="Path 1150" d="M56.138,144.585l16.016-6.57a1.583,1.583,0,0,0,.863-2.063l-3.236-7.888-.031.014-3.93,9.4L62.9,136.257a.378.378,0,0,0-.336.021.4.4,0,0,0-.167.2l-2.06,4.925-2.131-.891a.379.379,0,0,0-.5.2C57.7,140.746,56.385,143.97,56.138,144.585Z" transform="translate(-38.129 -68.692)" fill="#fc6570"/>
      <path id="Path_1151" data-name="Path 1151" d="M56.017,144.591l-.046-.019,1.648-3.941a.426.426,0,0,1,.557-.228l2.089.874,2.048-4.9a.426.426,0,0,1,.557-.228l2.873,1.2,3.95-9.447.046.019-3.97,9.493L62.85,136.2a.375.375,0,0,0-.491.2l-2.067,4.944-2.135-.893a.376.376,0,0,0-.491.2Z" transform="translate(-38.058 -68.624)" fill="#3f3d56"/>
      <circle id="Ellipse_21" data-name="Ellipse 21" cx="0.35" cy="0.35" r="0.35" transform="translate(19.18 70.787)" fill="#3f3d56"/>
      <circle id="Ellipse_22" data-name="Ellipse 22" cx="0.35" cy="0.35" r="0.35" transform="translate(23.762 66.527)" fill="#3f3d56"/>
      <circle id="Ellipse_23" data-name="Ellipse 23" cx="0.35" cy="0.35" r="0.35" transform="translate(30.897 58.465)" fill="#3f3d56"/>
      <path id="Path_1152" data-name="Path 1152" d="M43.489,138.774a1.392,1.392,0,0,0,.5-2.075l1.041-10.175H42.778l-.827,9.935a1.4,1.4,0,0,0,1.538,2.315Z" transform="translate(-31.854 -68.034)" fill="#ffb8b8"/>
      <circle id="Ellipse_24" data-name="Ellipse 24" cx="3.182" cy="3.182" r="3.182" transform="translate(10.519 46.512)" fill="#ffb8b8"/>
      <path id="Path_1153" data-name="Path 1153" d="M47.478,128.94a.582.582,0,0,1-.561-.427,32.177,32.177,0,0,0-1.971-4.655,3.856,3.856,0,0,1,2.189-5.323h0a3.854,3.854,0,0,1,4.952,2.455,19.071,19.071,0,0,1,.722,6.36.584.584,0,0,1-.458.54L47.6,128.927a.581.581,0,0,1-.125.014Z" transform="translate(-33.179 -64.525)" fill="#ff6584"/>
      <path id="Path_1154" data-name="Path 1154" d="M33.009,160.715H34.6l.756-6.126H33.009Z" transform="translate(-14.111 -66.086)" fill="#ffb8b8"/>
      <path id="Path_1155" data-name="Path 1155" d="M0,0H4.992V1.929H1.929A1.929,1.929,0,0,1,0,0H0Z" transform="translate(23.549 96.104) rotate(179.997)" fill="#2f2e41"/>
      <path id="Path_1156" data-name="Path 1156" d="M5.269,157.686l1.392.765,3.614-5-2.054-1.129Z" transform="translate(-2.253 -65.114)" fill="#ffb8b8"/>
      <path id="Path_1157" data-name="Path 1157" d="M0,0H4.992V1.929H1.929A1.929,1.929,0,0,1,0,0H0Z" transform="matrix(-0.876, -0.482, 0.482, -0.876, 6.382, 96.104)" fill="#2f2e41"/>
      <path id="Path_1158" data-name="Path 1158" d="M46.85,162.182a.583.583,0,0,1-.578-.508l-1.986-15.306a.324.324,0,0,0-.6-.115L35.4,161.272a.586.586,0,0,1-.718.264l-1.8-.687a.583.583,0,0,1-.332-.765L38.283,146a.449.449,0,0,0,.029-.112c.777-6.011,2.753-9.068,3.34-9.862a.451.451,0,0,0,.064-.411l-.081-.242a.583.583,0,0,1,.112-.567c2.116-2.41,5.8-1.095,5.84-1.081l.018.007.012.016c4.135,5.671,2.606,24.088,2.258,27.723a.581.581,0,0,1-.536.525l-2.445.188Z" transform="translate(-28.027 -70.952)" fill="#2f2e41"/>
      <path id="Path_1159" data-name="Path 1159" d="M63.953,116.831a1.365,1.365,0,0,0-.031.212l-5.565,3.21L57,119.475l-1.442,1.888,2.261,1.611a1.036,1.036,0,0,0,1.243-.03l5.738-4.527a1.36,1.36,0,1,0-.852-1.586Z" transform="translate(-37.883 -63.441)" fill="#ffb8b8"/>
      <path id="Path_1160" data-name="Path 1160" d="M56.129,121.893l-1.8,2.331a.583.583,0,0,1-.881.048l-2.036-2.114A1.619,1.619,0,0,1,53.4,119.6l2.554,1.428a.583.583,0,0,1,.177.865Z" transform="translate(-35.842 -64.928)" fill="#ff6584"/>
      <path id="Path_1161" data-name="Path 1161" d="M45.421,126.907l-2.9-.523a.583.583,0,0,1-.449-.76l.939-2.781a1.619,1.619,0,0,1,3.185.585l-.092,2.924a.583.583,0,0,1-.686.555Z" transform="translate(-32.104 -65.893)" fill="#ff6584"/>
      <path id="Path_1162" data-name="Path 1162" d="M40.942,106.949c.818.56,1.892,1.135,2.727.539a1.52,1.52,0,0,0,.5-1.752,3.738,3.738,0,0,0-2.55-2.033,7.322,7.322,0,0,0-4.264-.542,3.025,3.025,0,0,0-2.4,3.157c.2,1.152,1.292,2.111,1.137,3.271s-1.468,1.782-2.627,1.991-2.456.276-3.289,1.108a3.09,3.09,0,0,0,.2,4.082,7.449,7.449,0,0,0,3.971,1.975,9.662,9.662,0,0,0,5.873-.061c1.84-.76,3.272-2.805,2.739-4.723A6.589,6.589,0,0,0,41.69,111.8a6.024,6.024,0,0,1-1.227-2.181,2.268,2.268,0,0,1,.41-1.984.575.575,0,0,0,.077-.672Z" transform="translate(-26.738 -57.987)" fill="#2f2e41"/>
      <path id="Path_1163" data-name="Path 1163" d="M51.013,192.153H24.82a.138.138,0,0,1,0-.276H51.013a.138.138,0,0,1,0,.276Z" transform="translate(-24.682 -95.972)" fill="#ccc"/>
    </g>
  </g>
</svg>
