<svg xmlns="http://www.w3.org/2000/svg" width="22.208" height="16.655" viewBox="0 0 22.208 16.655"><defs><style>.a{fill:#333;}</style></defs><path class="a" d="M20.126,3.75H2.082A2.084,2.084,0,0,0,0,5.832V18.324a2.084,2.084,0,0,0,2.082,2.082H20.126a2.084,2.084,0,0,0,2.082-2.082V5.832A2.084,2.084,0,0,0,20.126,3.75Zm0,1.388a.69.69,0,0,1,.266.054L11.1,13.241,1.816,5.192a.691.691,0,0,1,.266-.054Zm0,13.88H2.082a.694.694,0,0,1-.694-.694V6.658l9.261,8.026a.7.7,0,0,0,.91,0L20.82,6.658V18.324A.694.694,0,0,1,20.126,19.018Z" transform="translate(0 -3.75)"/></svg>