<svg xmlns="http://www.w3.org/2000/svg" xmlns:xlink="http://www.w3.org/1999/xlink" width="26" height="26" viewBox="0 0 26 26"><defs><style>.a{fill:#fff;}.b{clip-path:url(#a);}.c{fill:rgba(53,152,219,0.46);}</style><clipPath id="a"><rect class="a" width="26" height="26" transform="translate(163 631)"/></clipPath></defs><g class="b" transform="translate(-163 -631)"><g transform="translate(164.573 631)"><path class="c" d="M23.279,3.045h-.761V2.284A2.286,2.286,0,0,0,20.234,0H5.008A2.286,2.286,0,0,0,2.725,2.284V20.656A2.286,2.286,0,0,0,5.008,22.94H5.77V23.7a2.286,2.286,0,0,0,2.284,2.284H23.279A2.286,2.286,0,0,0,25.563,23.7V5.329A2.286,2.286,0,0,0,23.279,3.045ZM6.439,5.867A2.269,2.269,0,0,0,5.77,7.482V21.418H5.008a.762.762,0,0,1-.761-.761V2.284a.762.762,0,0,1,.761-.761H20.234A.762.762,0,0,1,21,2.284v.761H10.207a2.269,2.269,0,0,0-1.615.669Zm3.9-1.3V7.613H7.292V7.482a.756.756,0,0,1,.223-.538L9.669,4.791a.756.756,0,0,1,.538-.223h.131ZM24.041,23.7a.762.762,0,0,1-.761.761H8.054a.762.762,0,0,1-.761-.761V9.135H11.1a.761.761,0,0,0,.761-.761V4.568H23.279a.762.762,0,0,1,.761.761Z" transform="translate(-2.725)"/><g transform="translate(6.09 10.76)"><path class="c" d="M26.213,18.633H14.033a.761.761,0,1,0,0,1.523H26.213a.761.761,0,1,0,0-1.523Z" transform="translate(-13.271 -18.633)"/></g><g transform="translate(6.09 13.805)"><path class="c" d="M26.213,23.906H14.033a.761.761,0,1,0,0,1.523H26.213a.761.761,0,1,0,0-1.523Z" transform="translate(-13.271 -23.906)"/></g><g transform="translate(6.09 16.85)"><path class="c" d="M26.213,29.18H14.033a.761.761,0,1,0,0,1.523H26.213a.761.761,0,1,0,0-1.523Z" transform="translate(-13.271 -29.18)"/></g><g transform="translate(6.09 19.895)"><path class="c" d="M26.213,34.453H14.033a.761.761,0,1,0,0,1.523H26.213a.761.761,0,1,0,0-1.523Z" transform="translate(-13.271 -34.453)"/></g></g></g></svg>