<svg xmlns="http://www.w3.org/2000/svg" xmlns:xlink="http://www.w3.org/1999/xlink" width="58" height="57" viewBox="0 0 58 57"><defs><style>.a{fill:#fff;}.b{clip-path:url(#a);}.c{fill:#167ee6;}.d{fill:#12b347;}.e{fill:#0f993e;}.f{fill:#ffd500;}.g{fill:#ff4b26;}.h{fill:#d93f21;}</style><clipPath id="a"><rect class="a" width="58" height="57" transform="translate(387 608)"/></clipPath></defs><g class="b" transform="translate(-387 -608)"><g transform="translate(389 609.427)"><path class="c" d="M57.447,26.436H35.172a1.781,1.781,0,0,0-1.781,1.781v7.116a1.781,1.781,0,0,0,1.781,1.781H47.716a16.746,16.746,0,0,1-7.208,8.447l5.349,9.259A26.774,26.774,0,0,0,59.509,31.4a18.049,18.049,0,0,0-.307-3.5A1.789,1.789,0,0,0,57.447,26.436Z" transform="translate(-4.899 -3.879)"/><path class="d" d="M27.936,50.048A16.617,16.617,0,0,1,13.56,41.731L4.3,47.067A27.283,27.283,0,0,0,41.588,57.075v-.013L36.24,47.8A16.5,16.5,0,0,1,27.936,50.048Z" transform="translate(-0.631 -6.123)"/><path class="e" d="M45.652,58.119v-.013L40.3,48.847A16.5,16.5,0,0,1,32,51.092V61.777A27.258,27.258,0,0,0,45.652,58.119Z" transform="translate(-4.695 -7.167)"/><path class="f" d="M10.685,29.655a16.5,16.5,0,0,1,2.244-8.3L3.67,16.015a27.18,27.18,0,0,0,0,27.279l9.259-5.337A16.5,16.5,0,0,1,10.685,29.655Z" transform="translate(0 -2.35)"/><path class="g" d="M27.936,10.685a16.544,16.544,0,0,1,10.552,3.788,1.774,1.774,0,0,0,2.387-.108l5.042-5.042a1.794,1.794,0,0,0-.1-2.624A27.245,27.245,0,0,0,4.3,13.665L13.56,19A16.617,16.617,0,0,1,27.936,10.685Z" transform="translate(-0.631)"/><path class="h" d="M42.552,14.473a1.774,1.774,0,0,0,2.387-.108l5.042-5.042a1.794,1.794,0,0,0-.1-2.624A27.222,27.222,0,0,0,32,0V10.685A16.544,16.544,0,0,1,42.552,14.473Z" transform="translate(-4.695)"/></g></g></svg>