<svg xmlns="http://www.w3.org/2000/svg" width="24.314" height="24.356" viewBox="0 0 24.314 24.356"><defs><style>.a{fill:none;stroke:#333;stroke-linecap:round;stroke-linejoin:round;stroke-width:2px;}</style></defs><path class="a" d="M16.923,5.753a5.316,5.316,0,0,1,4.2,4.2M16.923,1.5a9.569,9.569,0,0,1,8.452,8.442m-1.063,8.484v3.19a2.126,2.126,0,0,1-2.318,2.126,21.04,21.04,0,0,1-9.175-3.264A20.732,20.732,0,0,1,6.44,14.1,21.04,21.04,0,0,1,3.176,4.881,2.126,2.126,0,0,1,5.292,2.563h3.19a2.126,2.126,0,0,1,2.126,1.829,13.651,13.651,0,0,0,.744,2.988,2.126,2.126,0,0,1-.478,2.243l-1.35,1.35A17.011,17.011,0,0,0,15.9,17.352L17.253,16a2.126,2.126,0,0,1,2.243-.478,13.651,13.651,0,0,0,2.988.744A2.126,2.126,0,0,1,24.312,18.426Z" transform="translate(-2.167 -0.396)"/></svg>