<svg xmlns="http://www.w3.org/2000/svg" width="21.453" height="20.5" viewBox="0 0 21.453 20.5"><defs><style>.a{fill:#979797;}</style></defs><path class="a" d="M-.18,2.6A2.23,2.23,0,0,1,.545.889,2.659,2.659,0,0,1,2.429.216,2.58,2.58,0,0,1,4.272.879,2.336,2.336,0,0,1,5,2.659a2.18,2.18,0,0,1-.7,1.657A2.664,2.664,0,0,1,2.388,5H2.367A2.534,2.534,0,0,1,.524,4.316,2.3,2.3,0,0,1-.18,2.6ZM.089,20.716V6.884h4.6V20.716H.089Zm7.144,0h4.6V12.992A2.981,2.981,0,0,1,12,11.874a3,3,0,0,1,.88-1.191,2.25,2.25,0,0,1,1.481-.487q2.319,0,2.319,3.127v7.392h4.6V12.785a6.665,6.665,0,0,0-1.449-4.649,4.945,4.945,0,0,0-3.831-1.584,4.7,4.7,0,0,0-4.162,2.3v.041h-.021l.021-.041V6.884h-4.6q.041.663.041,4.121t-.041,9.712Z" transform="translate(0.18 -0.216)"/></svg>