<svg xmlns="http://www.w3.org/2000/svg" xmlns:xlink="http://www.w3.org/1999/xlink" width="56" height="56" viewBox="0 0 56 56">
  <defs>
    <clipPath id="clip-path">
      <rect id="Rectangle_636" data-name="Rectangle 636" width="56" height="56" rx="10" transform="translate(606 353)" fill="#fff"/>
    </clipPath>
  </defs>
  <g id="Mask_Group_24" data-name="Mask Group 24" transform="translate(-606 -353)" clip-path="url(#clip-path)">
    <g id="checkmark" transform="translate(607.881 356.332)">
      <path id="Path_1066" data-name="Path 1066" d="M24.093,48.188a24.093,24.093,0,1,1,13-44.378,1.644,1.644,0,0,1-1.776,2.766A20.8,20.8,0,1,0,44.9,24.095c0-.686-.033-1.365-.1-2.033a1.643,1.643,0,1,1,3.27-.318q.111,1.16.111,2.35A24.121,24.121,0,0,1,24.094,48.188Zm0,0" transform="translate(0 -0.001)" fill="#fc6570"/>
      <path id="Path_1067" data-name="Path 1067" d="M32.207,30.338a1.631,1.631,0,0,1-1.161-.482L21.19,20a1.643,1.643,0,0,1,2.324-2.324l8.7,8.7,22.93-22.93a1.643,1.643,0,1,1,2.324,2.324L33.37,29.859a1.646,1.646,0,0,1-1.163.48Zm0,0" transform="translate(-5.376 -0.769)" fill="#fc6570"/>
    </g>
  </g>
</svg>
