<?xml version="1.0" encoding="iso-8859-1"?>
<!-- Generator: Adobe Illustrator 19.0.0, SVG Export Plug-In . SVG Version: 6.00 Build 0)  -->
<svg xmlns="http://www.w3.org/2000/svg" xmlns:xlink="http://www.w3.org/1999/xlink" version="1.1" id="Layer_1" x="0px" y="0px" viewBox="0 0 512 512" style="enable-background:new 0 0 512 512;" xml:space="preserve" width="512" height="512">
<path d="M427,127.572V0H85v127.571L0,190.967V452c0,33.084,26.916,60,60,60h392c33.084,0,60-26.916,60-60V190.967L427,127.572z   M456.813,199.707L427,221.882v-44.411L456.813,199.707z M387,40v211.635l-131,97.439l-131-97.439V40H387z M85,221.882  l-29.813-22.176L85,177.471V221.882z M452,472H60c-11.028,0-20-8.972-20-20V238.263l216,160.663l216-160.663V452  C472,463.028,463.028,472,452,472z M230,143h-40c0-18.293,7.845-35.813,21.524-48.068c14.059-12.596,33.049-18.618,52.1-16.519  c30.288,3.333,54.685,27.524,58.009,57.521c3.039,27.426-12.974,46.908-25.284,59.177c-3.087,3.077-5.927,5.765-8.432,8.135  c-11.526,10.906-11.913,11.926-11.913,17.889V222h-40v-0.865c0-23.838,11.862-35.062,24.421-46.944  c2.442-2.311,4.968-4.7,7.686-7.409c10.538-10.504,14.654-18.411,13.765-26.44c-1.279-11.543-10.796-20.865-22.629-22.168  c-7.879-0.869-15.348,1.459-21.031,6.551C232.917,129.47,230,135.961,230,143z M236,253h40v40h-40V253z"/>















</svg>
