<svg xmlns="http://www.w3.org/2000/svg" xmlns:xlink="http://www.w3.org/1999/xlink" width="140" height="91" viewBox="0 0 140 91">
  <defs>
    <clipPath id="clip-path">
      <rect id="Rectangle_720" data-name="Rectangle 720" width="140" height="91" transform="translate(422 1857)" fill="#fff"/>
    </clipPath>
    <linearGradient id="linear-gradient" x1="0.5" y1="1" x2="0.5" y2="-0.001" gradientUnits="objectBoundingBox">
      <stop offset="0" stop-color="gray" stop-opacity="0.251"/>
      <stop offset="0.54" stop-color="gray" stop-opacity="0.122"/>
      <stop offset="1" stop-color="gray" stop-opacity="0.102"/>
    </linearGradient>
  </defs>
  <g id="pyth" transform="translate(-422 -1857)" clip-path="url(#clip-path)">
    <g id="undraw_programming_2svr_1_" data-name="undraw_programming_2svr (1)" transform="translate(422 1867.446)">
      <path id="Path_1203" data-name="Path 1203" d="M148.116,95.59q-.235.473-.468.933-.364.715-.718,1.4c-.105.2-.21.4-.313.6-1.159,2.215-2.242,4.173-3.161,5.784a9.977,9.977,0,0,1-8.6,4.878l-20.441.208H114.2l-1.752.018-1.5.015-4.6.047h-.186l-2.34.024h-.071l-14.423.146-12.874.126-1.5.015-9.3.095h-.011l-6.032.06h-.065l-19.073.193-5.706.058a12.638,12.638,0,0,1-3.595-.481,11.774,11.774,0,0,1-5.269-3.12,24.892,24.892,0,0,1-5.436-8.667q-.26-.692-.485-1.4c-4.153-13.128.91-30.064,10.022-41.4q.573-.711,1.165-1.387l.009-.01a36.627,36.627,0,0,1,9.291-7.815c5.931-3.392,12.5-4.347,18.965-1.5a44.775,44.775,0,0,0,15.524,3.851c.5.03,1,.053,1.5.067,11.354.334,21.994-3.491,34.489-5.961.5-.1,1-.2,1.5-.287a87.732,87.732,0,0,1,30.561-.695,26.974,26.974,0,0,1,3.607.807q.778.234,1.5.5a15.43,15.43,0,0,1,9.975,11.024q.185.688.319,1.4C160.716,67.014,153.962,83.881,148.116,95.59Z" transform="translate(-18.518 -40.36)" fill="#3598db" opacity="0.1"/>
      <g id="Group_112" data-name="Group 112" transform="translate(1.469 1.719)" opacity="0.1">
        <path id="Path_1204" data-name="Path 1204" d="M49.729,50.641v64.236l-5.706.058a12.639,12.639,0,0,1-3.595-.481v-56h.009A36.472,36.472,0,0,1,49.729,50.641Z" transform="translate(-29.242 -46.806)" fill="#3598db"/>
        <path id="Path_1205" data-name="Path 1205" d="M166.82,66.506H38.412q.573-.711,1.165-1.387v-.01H166.5Q166.686,65.794,166.82,66.506Z" transform="translate(-28.39 -53.46)" fill="#3598db"/>
        <path id="Path_1206" data-name="Path 1206" d="M241.8,44.259V98.08h-.468q-.364.715-.718,1.4c-.105.2-.21.4-.313.6V43.749Q241.076,43.984,241.8,44.259Z" transform="translate(-113.668 -43.637)" fill="#3598db"/>
        <path id="Path_1207" data-name="Path 1207" d="M180.046,43.542v67.34l-1.5.015V43.829C179.044,43.731,179.543,43.634,180.046,43.542Z" transform="translate(-87.584 -43.542)" fill="#3598db"/>
        <path id="Path_1208" data-name="Path 1208" d="M117.74,55.053V116.51l-1.5.015V54.986C116.743,55.016,117.243,55.034,117.74,55.053Z" transform="translate(-61.266 -48.805)" fill="#3598db"/>
        <path id="Path_1209" data-name="Path 1209" d="M148.723,144.342q-.364.715-.718,1.4H21.547q-.26-.692-.485-1.4Z" transform="translate(-21.061 -89.898)" fill="#3598db"/>
      </g>
      <rect id="Rectangle_722" data-name="Rectangle 722" width="2.561" height="7.268" transform="translate(28.521 33.502)" fill="#3f3d56"/>
      <rect id="Rectangle_723" data-name="Rectangle 723" width="2.561" height="7.689" transform="translate(97.444 33.124)" fill="#3f3d56"/>
      <path id="Path_1210" data-name="Path 1210" d="M126.8,121.478v1.639l-20.478.176-.218,0-7.783.067-.186,0-2.366.019H95.7l-14.42.125-23.671.205h-.02l-6.018.053H51.5L24.76,124v-1.891l6.288-3.529,12.617-.1h.359l.27,0,6.058-.047h.627l1.942-.015h.051l4.792-.038H57.8l37.391-.295.915-.006H96.2l.7-.006,5.075-.039.27,0,.249,0h.129l1.578-.011.313,0,.419,0,1.314-.011,2.085-.016.27,0,.469,0h.088l10.07-.081Z" transform="translate(-10.46 -54.218)" fill="#65617d"/>
      <path id="Path_1211" data-name="Path 1211" d="M126.8,121.478v1.639l-20.478.176-.218,0-7.783.067-.186,0-2.366.019H95.7l-14.42.125-23.671.205h-.02l-6.018.053H51.5L24.76,124v-1.891l6.288-3.529,12.617-.1h.359l.27,0,6.058-.047h.627l1.942-.015h.051l4.792-.038H57.8l37.391-.295.915-.006H96.2l.7-.006,5.075-.039.27,0,.249,0h.129l1.578-.011.313,0,.419,0,1.314-.011,2.085-.016.27,0,.469,0h.088l10.07-.081Z" transform="translate(-10.46 -54.218)" opacity="0.2"/>
      <path id="Path_1212" data-name="Path 1212" d="M82.966,153.222v3.087a.77.77,0,0,1-.472.7.855.855,0,0,1-.337.076l-4.7.093a.857.857,0,0,1-.364-.072.77.77,0,0,1-.481-.7v-3.18Z" transform="translate(-43.055 -92.263)" fill="#3f3d56"/>
      <path id="Path_1213" data-name="Path 1213" d="M82.966,153.222v3.087a.77.77,0,0,1-.472.7.855.855,0,0,1-.337.076l-4.7.093a.857.857,0,0,1-.364-.072.77.77,0,0,1-.481-.7v-3.18Z" transform="translate(-43.055 -92.263)" opacity="0.1"/>
      <path id="Path_1214" data-name="Path 1214" d="M83.432,153.222v3.087a.77.77,0,0,1-.472.7.855.855,0,0,1-.337.076l-4.7.093a.857.857,0,0,1-.364-.072.77.77,0,0,1-.481-.7v-3.18Z" transform="translate(-43.252 -92.263)" fill="#3f3d56"/>
      <rect id="Rectangle_724" data-name="Rectangle 724" width="6.358" height="3.97" transform="translate(91.782 60.959)" fill="#3f3d56"/>
      <rect id="Rectangle_725" data-name="Rectangle 725" width="6.358" height="3.97" transform="translate(91.782 60.959)" opacity="0.1"/>
      <rect id="Rectangle_726" data-name="Rectangle 726" width="6.358" height="3.97" transform="translate(91.513 60.959)" fill="#3f3d56"/>
      <path id="Path_1215" data-name="Path 1215" d="M51.942,62.034v.722l-2.561-.062v-.66Z" transform="translate(-20.86 -28.533)" opacity="0.1"/>
      <path id="Path_1216" data-name="Path 1216" d="M80.058,62.857,76.981,83.529a.569.569,0,0,1-.589.468l-24.64-.6-.468-.011a.6.6,0,0,1-.427-.19.518.518,0,0,1-.134-.424l3.455-21.64a.572.572,0,0,1,.612-.458l24.729,1.565a.593.593,0,0,1,.414.2A.516.516,0,0,1,80.058,62.857Z" transform="translate(-32.119 -49.703)" fill="#65617d"/>
      <path id="Path_1217" data-name="Path 1217" d="M39.151,23.141,36.545,42.215l22.645.672,2.785-18.4Z" transform="translate(-15.438 -10.646)" fill="#3598db"/>
      <rect id="Rectangle_727" data-name="Rectangle 727" width="27.588" height="21.848" rx="1.244" transform="translate(51.84 12.199)" fill="#65617d"/>
      <rect id="Rectangle_728" data-name="Rectangle 728" width="25.071" height="18.192" transform="translate(53.142 13.67)" fill="#3598db"/>
      <path id="Path_1218" data-name="Path 1218" d="M171.269,61.334v.478l-2.561.049v-.527Z" transform="translate(-71.265 -28.211)" opacity="0.1"/>
      <path id="Path_1219" data-name="Path 1219" d="M191.019,82.089a.373.373,0,0,1-.108.287.428.428,0,0,1-.3.126l-25.233.488a.406.406,0,0,1-.422-.352l-2.169-21.085a.372.372,0,0,1,.1-.291.427.427,0,0,1,.294-.134l25.042-1.165.27-.013a.406.406,0,0,1,.434.353Z" transform="translate(-79.459 -49.369)" fill="#65617d"/>
      <path id="Path_1220" data-name="Path 1220" d="M146.772,23.179l22.87-1.051,1.932,19.159-22.69.5Z" transform="translate(-61.999 -10.181)" fill="#3598db"/>
      <path id="Path_1221" data-name="Path 1221" d="M209.622,82.089a.373.373,0,0,1-.108.287.428.428,0,0,1-.3.126l-2.388-22.538.27-.013a.406.406,0,0,1,.434.353Z" transform="translate(-98.061 -49.369)" opacity="0.1"/>
      <path id="Path_1222" data-name="Path 1222" d="M54.794,60.674,51.752,83.4l-.468-.011a.6.6,0,0,1-.427-.19.518.518,0,0,1-.134-.424l3.455-21.64A.572.572,0,0,1,54.794,60.674Z" transform="translate(-32.119 -49.701)" opacity="0.1"/>
      <rect id="Rectangle_729" data-name="Rectangle 729" width="2.561" height="2.153" transform="translate(28.521 38.617)" opacity="0.1"/>
      <path id="Path_1223" data-name="Path 1223" d="M64.917,112.868v.626l-6.358.159v-.785Z" transform="translate(-24.737 -51.91)" opacity="0.1"/>
      <path id="Path_1224" data-name="Path 1224" d="M87.844,112.822v21.2a.521.521,0,0,1-.519.5l-25.833.643h-.007a.523.523,0,0,1-.532-.5V112.822a.523.523,0,0,1,.532-.5H87.312a.523.523,0,0,1,.532.5Z" transform="translate(-36.443 -73.455)" fill="#65617d"/>
      <path id="Path_1225" data-name="Path 1225" d="M61.492,112.324v22.84h-.007a.523.523,0,0,1-.532-.5V112.822a.523.523,0,0,1,.532-.5Z" transform="translate(-36.443 -73.455)" opacity="0.1"/>
      <path id="Path_1226" data-name="Path 1226" d="M45.413,74.479H69.339V93.166l-23.926.5Z" transform="translate(-19.184 -34.256)" fill="#d4dfec"/>
      <rect id="Rectangle_730" data-name="Rectangle 730" width="2.561" height="2.196" transform="translate(97.444 38.617)" opacity="0.1"/>
      <path id="Path_1227" data-name="Path 1227" d="M164.8,112.868v.808l-6.358-.159v-.649Z" transform="translate(-66.927 -51.91)" opacity="0.1"/>
      <path id="Path_1228" data-name="Path 1228" d="M182.821,112.822v21.844a.523.523,0,0,1-.539.5h0l-25.838-.643a.521.521,0,0,1-.519-.5v-21.2a.523.523,0,0,1,.532-.5h25.826A.523.523,0,0,1,182.821,112.822Z" transform="translate(-76.559 -73.455)" fill="#65617d"/>
      <path id="Path_1229" data-name="Path 1229" d="M202.1,112.822v21.844a.523.523,0,0,1-.539.5h0v-22.84h0a.523.523,0,0,1,.539.5Z" transform="translate(-95.834 -73.455)" opacity="0.1"/>
      <path id="Path_1230" data-name="Path 1230" d="M163.5,74.479H139.577V93.166l23.926.5Z" transform="translate(-58.959 -34.256)" fill="#d4dfec"/>
      <path id="Path_1231" data-name="Path 1231" d="M135.1,112.822v21.2a.521.521,0,0,1-.519.5l-25.833.643h0a.523.523,0,0,1-.539-.5V112.822a.523.523,0,0,1,.532-.5h25.826A.523.523,0,0,1,135.1,112.822Z" transform="translate(-56.404 -73.455)" fill="#65617d"/>
      <path id="Path_1232" data-name="Path 1232" d="M92.67,74.479H116.6V93.166l-23.926.5Z" transform="translate(-39.146 -34.256)" fill="#d4dfec"/>
      <path id="Path_1233" data-name="Path 1233" d="M126.8,124.537v1.639l-20.478.176-.218,0-7.783.067-.186,0-2.366.019H95.7l-14.42.125-23.671.205h-.02l-6.018.053H51.5l-26.743.229v-1.891l27.3-.168h.065l5.525-.035h.026l38.157-.236h.125l.646,0h.2l10.041-.063.593,0h.132Z" transform="translate(-10.46 -57.276)" opacity="0.1"/>
      <ellipse id="Ellipse_35" data-name="Ellipse 35" cx="6.919" cy="6.47" rx="6.919" ry="6.47" transform="translate(58.758 27.83)" fill="#fbbebe"/>
      <path id="Path_1234" data-name="Path 1234" d="M89.552,128.741a.15.15,0,0,1,.013-.044c.135-.452.375-1.218.554-1.829.023-.076.044-.15.065-.221.2-.689.584-2.3.8-3.311.075-.354.135-.63.147-.769a20.157,20.157,0,0,1,.892-2.172c.322-.736.674-1.54.931-2.218a7.364,7.364,0,0,0,.395-1.242.6.6,0,0,0,0-.268,1.739,1.739,0,0,1-.065-.441h0a4.932,4.932,0,0,1,.6-2.535,10.673,10.673,0,0,0,.809-2.982s.7.095.809-.445a.726.726,0,0,0,.013-.176.875.875,0,0,0-.012-.14c-.12-.787,1.984-1.623,3.168-1.8a2.829,2.829,0,0,1,.4-.035,3.888,3.888,0,0,0,.842-.182q.189-.054.4-.126c.5-.156,1.089-.363,1.719-.59,2.367-.858,5.233-2.017,5.233-2.017.02-.089.043-.175.069-.26a3.573,3.573,0,0,1,2.2-2.386h0V102.3c0-.435-.02-.882-.04-1.329,0-.087-.008-.174-.013-.261v-.142c0-.088-.009-.176-.015-.263l-.024-.018a2.13,2.13,0,0,1-.526-.529,1.87,1.87,0,0,1-.191-.378,10.915,10.915,0,0,1-.321-1.355l-.024-.093a10.17,10.17,0,0,0-.539-1.334,21.9,21.9,0,0,1-.755-2.1q-.208-.647-.419-1.3l-.213-.66c-.04-.126-.081-.252-.112-.378h0a1.575,1.575,0,0,1-.035-.176h0a1.182,1.182,0,0,1,.032-.581,3.916,3.916,0,0,1,.178-.378.953.953,0,0,0,.067-.174h0a.364.364,0,0,0,.011-.04.668.668,0,0,0,.015-.136,2.185,2.185,0,0,0-.07-.49.008.008,0,0,1,0-.006.3.3,0,0,0-.007-.034,3.013,3.013,0,0,1-.049-.378,3.4,3.4,0,0,1,.468-1.963l.026-.045a3.164,3.164,0,0,1,.248-.35h0a1.8,1.8,0,0,1,.135-.154.506.506,0,0,1-.674-.087.458.458,0,0,1-.074-.095.471.471,0,0,1-.031-.057c-.007-.015-.012-.032-.018-.048a.986.986,0,0,1,.286-.889,2.465,2.465,0,0,1,.774-.592h0a.54.54,0,0,1,.054-.026,2.4,2.4,0,0,1,.356-.134h0a2.138,2.138,0,0,1,.22-.055l-.5-.043-.2-.018a1.923,1.923,0,0,1,1.752-1.375h.146a1.691,1.691,0,0,1,.212.016.557.557,0,0,1-.357-.546,2.032,2.032,0,0,0,1.239.386h.051a3.547,3.547,0,0,1-.046-.412h0a3.91,3.91,0,0,1,0-.562,1.188,1.188,0,0,0,.914.285l-.28-.366a1.34,1.34,0,0,0,.884.258l.065-.006a1,1,0,0,0,.16-.029h.012c-.026-.03-.049-.062-.071-.095l-.008-.015a1.186,1.186,0,0,1-.135-.263.79.79,0,0,1-.032-.11h0a1.037,1.037,0,0,1,.061-.687c.435.34.913.805,1.483.454s.589-1,1.483-.931a1.371,1.371,0,0,1,1.134.771.954.954,0,0,1,1.034-.221.855.855,0,0,1,.523.868,1.985,1.985,0,0,1,1.126-.042c.356.131.585.556.383.839a.181.181,0,0,1-.019.025c-.166.2-.532.31-.493.562l.057.038.175.118q1.031.7,2.008,1.462a1.52,1.52,0,0,1,.713.987,1.021,1.021,0,0,1-.032.3h0c-.022.1-.051.2-.074.295a2.3,2.3,0,0,0-.046.763h0c.009.074.022.147.036.222.206.974,1.039,1.778,1.121,2.773v.071a2.1,2.1,0,0,1-.009.319,6.493,6.493,0,0,1-.6,1.765c-.015.035-.03.071-.043.106a16.632,16.632,0,0,0-.944,3.549,11.912,11.912,0,0,1-.27,1.272,3.285,3.285,0,0,1-.686,1.315,2.145,2.145,0,0,1-.453.378,2.579,2.579,0,0,1-.357.178v.008c.015.077.027.154.042.231.008.04.015.081.023.126h0a.016.016,0,0,0,0,.008c.113.6.243,1.18.379,1.734l.069.276a2.413,2.413,0,0,1,1.911,2.2,1.137,1.137,0,0,1,0,.18s2.561.063,3.572.756a2.817,2.817,0,0,0,.608.29,11.764,11.764,0,0,0,1.247.364c.217.053.443.1.674.155.4.087.833.171,1.247.252,1.1.208,2.143.378,2.67.5,1.258.3,4.134,2.876,4.134,2.876a12.6,12.6,0,0,0,.674,2.981,10.984,10.984,0,0,1,.944,1.713l2.229,3.707.944,1.559h.607a1.044,1.044,0,0,1,.433.265c.16.134.338.3.495.451l.259.258.162.168s.98.023,1.246.747a6.474,6.474,0,0,1,2.464.315,1.949,1.949,0,0,1,.27.136,1.1,1.1,0,0,1,.557.713.989.989,0,0,1,.024.182v.214a3.46,3.46,0,0,1-1.324,2.283l.043.072s-.02.045-.059.126c-.011.024-.024.05-.039.081h0c-.079.159-.206.4-.372.676a8.026,8.026,0,0,1-1.29,1.66l-.039.038-7.783.067-.023-.025-1.51-1.684-.751-.837-.023-.026-.022.2-.073.668-.175,1.615-.009.081v.021l-.02.187.015-.187h-.039l-14.423.126-23.672.245v.106h-.019v-.106l-6.032.061Z" transform="translate(-48.523 -59.145)" fill="url(#linear-gradient)"/>
      <path id="Path_1235" data-name="Path 1235" d="M135.272,116.56s-13.412,1.513-12.131,0c.464-.547.592-2.168.566-4.015-.008-.561-.03-1.142-.061-1.721-.148-2.773-.505-5.483-.505-5.483s11.727-5.168,10.379-1.071a13.515,13.515,0,0,0,.047,6.161c.12.637.259,1.26.4,1.853A41.278,41.278,0,0,0,135.272,116.56Z" transform="translate(-62.675 -69.025)" fill="#fbbebe"/>
      <path id="Path_1236" data-name="Path 1236" d="M135.272,124.473s-13.412,1.513-12.131,0c.464-.547.592-2.168.566-4.015a9,9,0,0,1,4.646-.208,11.928,11.928,0,0,1,5.618-.053,41.279,41.279,0,0,0,1.3,4.275Z" transform="translate(-62.675 -76.938)" opacity="0.1"/>
      <path id="Path_1237" data-name="Path 1237" d="M95.706,146.789v-.106l23.672-.241,14.423-.126h.04l-.015.187.02-.187h.026v-.021l.185-1.7.07-.642.022-.2.019-.168.833-2.6.833-2.594.7-2.184,1.07-3.338a10.947,10.947,0,0,0-.944-1.7,12.467,12.467,0,0,1-.674-2.962s-2.876-2.563-4.134-2.857c-.527-.126-1.568-.294-2.673-.5-.414-.078-.838-.161-1.247-.252-.231-.049-.457-.1-.674-.153a12.46,12.46,0,0,1-1.247-.36,2.868,2.868,0,0,1-.607-.289,8.955,8.955,0,0,0-3.569-.756h0a.055.055,0,0,1,0-.009v-.011a1.206,1.206,0,0,0,0-.159.95.95,0,0,0-.012-.176.15.15,0,0,0-.009-.063c-.007-.045-.015-.093-.027-.144a.594.594,0,0,0-.016-.067,2.08,2.08,0,0,0-.168-.44c-.009-.02-.022-.042-.032-.062a2.289,2.289,0,0,0-.229-.331c-.018-.021-.036-.044-.057-.066a2.568,2.568,0,0,0-.367-.333c-.036-.026-.074-.054-.113-.079a.633.633,0,0,0-.069-.045l-.12-.073-.112-.061c-.1-.05-.2-.1-.315-.146-.035-.015-.073-.029-.111-.043l-.147-.053h-.008l-.1-.038c-.077-.024-.155-.045-.237-.067l-.125-.03-.135-.029-.135-.026c-.135-.025-.279-.048-.43-.066l-.154-.018-.158-.015-.163-.013-.232-.013-.27-.009a17.931,17.931,0,0,0-3.538.352,10.4,10.4,0,0,0-2.46-.212h-.117l-.135.008h-.086l-.174.015a1.377,1.377,0,0,0-.175.019c-.058.008-.119.014-.177.023l-.089.014c-.088.014-.177.029-.27.047q-.044.008-.089.019c-.117.024-.235.053-.35.086-.058.015-.116.033-.174.052-.03.008-.058.018-.086.028l-.086.029-.085.032-.1.038c-.051.02-.1.042-.151.064-.028.011-.057.024-.084.038s-.055.025-.081.039a3.751,3.751,0,0,0-.837.552l-.069.062-.067.064c-.023.021-.044.044-.066.067a3.052,3.052,0,0,0-.245.284c-.022.026-.042.053-.062.081a3.325,3.325,0,0,0-.232.368c-.018.03-.034.062-.05.092a3.961,3.961,0,0,0-.27.662q-.038.126-.069.252s-2.854,1.177-5.221,2.029c-.629.227-1.223.432-1.719.587l-.4.126a3.811,3.811,0,0,1-.842.182,2.827,2.827,0,0,0-.4.035c-1.088.165-2.952.882-3.155,1.6a.436.436,0,0,0-.013.176s0,.009,0,.014c.135.882-.809.756-.809.756A10.58,10.58,0,0,1,93.934,132a4.71,4.71,0,0,0-.6,2.23h0a2.316,2.316,0,0,0,.059.71v.018a2.939,2.939,0,0,1-.3,1.221c-.239.649-.586,1.456-.921,2.217a24.828,24.828,0,0,0-1.008,2.423c-.012.1-.047.285-.1.521-.2.96-.634,2.789-.849,3.529-.16.552-.394,1.308-.554,1.828a.168.168,0,0,1-.013.044l6.043-.055v.106h.019Z" transform="translate(-48.566 -77.149)" fill="#3598db"/>
      <path id="Path_1238" data-name="Path 1238" d="M103.951,141.787s7.683,3.718,10.446,3.277Z" transform="translate(-54.605 -87.004)" opacity="0.1"/>
      <path id="Path_1239" data-name="Path 1239" d="M131.022,138.987s7.481,2.269,9.975,2.584S131.022,138.987,131.022,138.987Z" transform="translate(-66.04 -85.716)" opacity="0.1"/>
      <path id="Path_1240" data-name="Path 1240" d="M134.821,123.337c-3.909.673-11.269.528-14.45.426,1.166-3.907,6.851-2.579,6.851-2.579C134.26,119.87,134.8,122.6,134.821,123.337Z" transform="translate(-61.541 -77.367)" opacity="0.1"/>
      <path id="Path_1241" data-name="Path 1241" d="M134.821,122.87c-3.909.673-11.269.528-14.45.426,1.166-3.907,6.851-2.579,6.851-2.579C134.26,119.4,134.8,122.129,134.821,122.87Z" transform="translate(-61.541 -77.152)" fill="#3598db"/>
      <path id="Path_1242" data-name="Path 1242" d="M181.312,156.8s4.6-.662,4.695,1.229-2.348,3.212-2.348,3.212Z" transform="translate(-87.283 -93.858)" fill="#fbbebe"/>
      <path id="Path_1243" data-name="Path 1243" d="M133.624,110.432q-.3.124-.607.219a22.87,22.87,0,0,1-4.448,1.113,7.71,7.71,0,0,1-4.47-.693,3.912,3.912,0,0,1-.4-.246c-.148-2.773-.505-5.483-.505-5.483s11.727-5.168,10.379-1.071A13.562,13.562,0,0,0,133.624,110.432Z" transform="translate(-62.732 -69.025)" opacity="0.1"/>
      <path id="Path_1244" data-name="Path 1244" d="M124.544,83.748a1.346,1.346,0,0,1-1.121-.221l.28.364a1.192,1.192,0,0,1-.914-.284,4.02,4.02,0,0,0,.043.977,2.051,2.051,0,0,1-1.289-.378.555.555,0,0,0,.356.543,1.931,1.931,0,0,0-2.1,1.35l.7.061a2.523,2.523,0,0,0-1.407.8.976.976,0,0,0-.286.882.539.539,0,0,0,.8.285A3.36,3.36,0,0,0,118.783,91a1.71,1.71,0,0,1,.062.663,5.421,5.421,0,0,1-.255.591,1.755,1.755,0,0,0,.113,1.134l.632,1.944c.229.7.457,1.405.756,2.085a9.941,9.941,0,0,1,.539,1.325,5.8,5.8,0,0,0,.539,1.811,2.638,2.638,0,0,0,.968.8,7.713,7.713,0,0,0,4.47.693,22.852,22.852,0,0,0,4.441-1.113,4.331,4.331,0,0,0,.922-.378c1-.615,1.228-1.873,1.415-2.981a16.041,16.041,0,0,1,.983-3.63,4.653,4.653,0,0,0,.609-2.135c-.082-.984-.915-1.782-1.121-2.75a2.243,2.243,0,0,1,.009-.979,2.1,2.1,0,0,0,.107-.592,1.512,1.512,0,0,0-.713-.979q-1.088-.85-2.246-1.606c-.039-.252.328-.36.493-.56.235-.281-.008-.727-.364-.858a1.986,1.986,0,0,0-1.126.042.823.823,0,0,0-.522-.864.93.93,0,0,0-1.035.22,1.372,1.372,0,0,0-1.135-.766c-.894-.066-.911.573-1.483.925s-1.043-.112-1.483-.45A1.109,1.109,0,0,0,124.544,83.748Z" transform="translate(-60.765 -59.56)" fill="#3f3d56"/>
      <path id="Path_1245" data-name="Path 1245" d="M177.629,153.731s-.12.267-.341.654a8.7,8.7,0,0,1-1.213,1.66l-.036.037h-.218l-7.783.067h-.186l-.023-.025-1.51-1.675-.569-.631-.023-.026-.049-.053-.027-.03-.035-.039-1.107-1.228.4-1.576.689-2.655.018-.064.135-.5.1-.378.321-1.233,1.1-4.241,1.954.945,2.061,3.4,1.107,1.828H173a1.749,1.749,0,0,1,.642.445c.094.084.189.174.27.252.24.232.43.431.43.431s.983.02,1.247.744a.837.837,0,0,1,.034.107,4.883,4.883,0,0,0,.341.827c.174.354.392.756.613,1.158.411.737.829,1.439.983,1.694l.019.031Z" transform="translate(-80.186 -87.005)" fill="#3598db"/>
      <path id="Path_1246" data-name="Path 1246" d="M138.847,152.113l-.013.18v.013l-.023.29-.179,2.333-.217,2.811-.062.792-.135,1.694v.021l-14.423.126-23.668.24v.106h-.019v-.141l.061-1.81.116-3.537.1-3,.009-.3a1.294,1.294,0,0,1,.475-.951,1.483,1.483,0,0,1,1.065-.331c.636.05,1.463.112,2.451.178l.4.028a233.385,233.385,0,0,0,26.891.252c.224-.011.449-.024.674-.039,1.65-.1,3.3-.222,4.931-.378a1.48,1.48,0,0,1,1.135.366,1.281,1.281,0,0,1,.428,1.049Z" transform="translate(-52.982 -91.078)" opacity="0.1"/>
      <path id="Path_1247" data-name="Path 1247" d="M100.133,161.151v-.106l23.672-.241,14.423-.126h.04v-.021l.135-1.694.058-.756.221-2.85.174-2.256v-.055a1.251,1.251,0,0,0-.015-.311.035.035,0,0,0,0-.013,1.268,1.268,0,0,0-.27-.585,1.467,1.467,0,0,0-1.27-.5c-1.632.156-3.281.281-4.931.378-.225.015-.45.028-.674.039a236.323,236.323,0,0,1-26.891-.252l-.4-.028c-.988-.066-1.814-.126-2.451-.178a1.408,1.408,0,0,0-1.515,1.075,1.3,1.3,0,0,0-.024.207l-.092,2.793L100.2,159.2l-.059,1.81v.141Z" transform="translate(-52.993 -91.511)" fill="#3f3d56"/>
      <path id="Path_1248" data-name="Path 1248" d="M138.9,154.236l-.166,1.932-.247,2.88-.062.721-.135,1.615-.008.081v.021h0l-.02.187.015-.187h-.039l-14.423.126-23.676.239v-.035l.066-1.81.135-3.537.086-2.351a.794.794,0,0,1,.412-.662.889.889,0,0,1,.51-.113c.283.021.631.047,1.037.074.659.045,1.472.1,2.418.154,1.752.1,3.951.214,6.47.305a225.228,225.228,0,0,0,25.46-.4c.4-.033.822-.069,1.231-.106a.894.894,0,0,1,.469.083.7.7,0,0,1,.116.068.787.787,0,0,1,.27.31.436.436,0,0,1,.034.077A.745.745,0,0,1,138.9,154.236Z" transform="translate(-52.996 -92.318)" opacity="0.1"/>
      <path id="Path_1249" data-name="Path 1249" d="M83.432,158.193v.4a.77.77,0,0,1-.472.7l-5.405.1a.77.77,0,0,1-.481-.7v-.378Z" transform="translate(-43.252 -94.549)" opacity="0.1"/>
      <path id="Path_1250" data-name="Path 1250" d="M64.533,119.387l-7.043.126V118.42l7.043-.126Z" transform="translate(-24.286 -54.406)" fill="#3f3d56"/>
      <path id="Path_1251" data-name="Path 1251" d="M64.533,119.387l-7.043.126V118.42l7.043-.126Z" transform="translate(-24.286 -54.406)" opacity="0.1"/>
      <path id="Path_1252" data-name="Path 1252" d="M65,119.387l-7.043.126V118.42L65,118.294Z" transform="translate(-24.483 -54.406)" fill="#3f3d56"/>
      <g id="Group_113" data-name="Group 113" transform="translate(57.822 23.227)" opacity="0.1">
        <path id="Path_1253" data-name="Path 1253" d="M128.838,83.911a1.19,1.19,0,0,1-.255-.547,1.123,1.123,0,0,0,.057.58A1.288,1.288,0,0,0,128.838,83.911Z" transform="translate(-122.826 -83.363)"/>
        <path id="Path_1254" data-name="Path 1254" d="M126.036,85.529a4.152,4.152,0,0,1-.05-.466c0,.155,0,.311,0,.468Z" transform="translate(-121.735 -84.145)"/>
        <path id="Path_1255" data-name="Path 1255" d="M145.085,92.812a2.171,2.171,0,0,1,.049-.334,2.136,2.136,0,0,0,.108-.591.732.732,0,0,0-.022-.134c-.023.116-.059.232-.086.347A2.259,2.259,0,0,0,145.085,92.812Z" transform="translate(-129.799 -87.222)"/>
        <path id="Path_1256" data-name="Path 1256" d="M140.235,85.958l.147.1a2.614,2.614,0,0,0,.346-.28.438.438,0,0,0,.051-.459.374.374,0,0,1-.051.081C140.563,85.6,140.2,85.709,140.235,85.958Z" transform="translate(-127.753 -84.263)"/>
        <path id="Path_1257" data-name="Path 1257" d="M120.976,88.747a1.491,1.491,0,0,0-.117.287,2.555,2.555,0,0,1,.674-.238Z" transform="translate(-119.569 -85.839)"/>
        <path id="Path_1258" data-name="Path 1258" d="M124.094,86.076a2.017,2.017,0,0,1-.253-.155.5.5,0,0,0,.012.149,1.71,1.71,0,0,1,.241.006Z" transform="translate(-120.828 -84.54)"/>
        <path id="Path_1259" data-name="Path 1259" d="M135.07,99.958a6.194,6.194,0,0,1-.607,1.78,16.034,16.034,0,0,0-.983,3.631c-.187,1.108-.4,2.366-1.415,2.98a4.191,4.191,0,0,1-.921.378,22.78,22.78,0,0,1-4.448,1.113,7.709,7.709,0,0,1-4.47-.692,2.648,2.648,0,0,1-.968-.8,5.946,5.946,0,0,1-.539-1.811,9.955,9.955,0,0,0-.539-1.326c-.3-.678-.527-1.387-.755-2.084q-.317-.972-.632-1.945a3.435,3.435,0,0,1-.154-.6,2.125,2.125,0,0,0,.154.977q.315.974.632,1.945a22.123,22.123,0,0,0,.755,2.084,9.954,9.954,0,0,1,.539,1.326,5.8,5.8,0,0,0,.539,1.811,2.648,2.648,0,0,0,.968.8,7.714,7.714,0,0,0,4.47.692,22.95,22.95,0,0,0,4.448-1.113,4.191,4.191,0,0,0,.921-.378c1-.614,1.228-1.872,1.415-2.98a16.034,16.034,0,0,1,.983-3.631,4.644,4.644,0,0,0,.609-2.135C135.073,99.973,135.07,99.966,135.07,99.958Z" transform="translate(-118.626 -90.995)"/>
        <path id="Path_1260" data-name="Path 1260" d="M119.077,98.124V98.11a1.655,1.655,0,0,0-.062-.662,3.145,3.145,0,0,1-.053-.418,3.229,3.229,0,0,0,.053.8C119.036,97.924,119.06,98.024,119.077,98.124Z" transform="translate(-118.766 -89.648)"/>
        <path id="Path_1261" data-name="Path 1261" d="M119.531,92.713a3.511,3.511,0,0,1,.352-.463.539.539,0,0,1-.8-.282.689.689,0,0,0,0,.378.581.581,0,0,0,.446.367Z" transform="translate(-118.809 -87.32)"/>
      </g>
      <path id="Path_1262" data-name="Path 1262" d="M178.023,153.222a5.134,5.134,0,0,1,0,2.71C177.6,157.192,178.023,153.222,178.023,153.222Z" transform="translate(-85.813 -92.263)" opacity="0.1"/>
      <path id="Path_1263" data-name="Path 1263" d="M181.049,155.959s.179,1.84-.225,2.167S181.049,155.959,181.049,155.959Z" transform="translate(-87.019 -93.522)" opacity="0.1"/>
      <line id="Line_33" data-name="Line 33" y1="0.126" x2="13.696" transform="translate(26.821 43.086)" fill="none" stroke="#3598db" stroke-miterlimit="10" stroke-width="0.467"/>
      <line id="Line_34" data-name="Line 34" y1="0.125" x2="13.696" transform="translate(26.821 44.659)" fill="none" stroke="#3598db" stroke-miterlimit="10" stroke-width="0.467"/>
      <line id="Line_35" data-name="Line 35" y1="0.126" x2="13.696" transform="translate(26.821 46.231)" fill="none" stroke="#3598db" stroke-miterlimit="10" stroke-width="0.467"/>
    </g>
  </g>
</svg>
