<svg xmlns="http://www.w3.org/2000/svg" xmlns:xlink="http://www.w3.org/1999/xlink" width="28" height="28" viewBox="0 0 28 28"><defs><style>.a{fill:#fff;}.b{clip-path:url(#a);}.c{fill:#fdca3b;}</style><clipPath id="a"><rect class="a" width="28" height="28" transform="translate(382 760)"/></clipPath></defs><g class="b" transform="translate(-382 -760)"><g transform="translate(381.067 759.066)"><path class="c" d="M9.248,10.948A7.038,7.038,0,0,0,10.2,19.67a7,7,0,1,0,0-9.9q-.143.143-.277.294l.7.622c.078-.087.158-.172.241-.256a6.059,6.059,0,1,1-.823,1.021Z"/><path class="c" d="M11.666,17.733V18.2a.467.467,0,0,0,.467.467h6.533a.467.467,0,0,0,.467-.467v-.467a3.736,3.736,0,0,0-2.191-3.4,2.333,2.333,0,1,0-3.085,0A3.736,3.736,0,0,0,11.666,17.733ZM14,12.6A1.4,1.4,0,1,1,15.4,14,1.4,1.4,0,0,1,14,12.6Zm1.4,2.333a2.8,2.8,0,0,1,2.8,2.8H12.6A2.8,2.8,0,0,1,15.4,14.933Z"/><path class="c" d="M28.466.933H12.6a.467.467,0,0,0-.467.467V6.38c-.222.08-.442.168-.66.267l.386.849a7.971,7.971,0,0,1,8.9,1.614,7.924,7.924,0,1,1-9.777-1.143l-.49-.794A8.9,8.9,0,0,0,8.876,8.451,8.851,8.851,0,0,0,7.451,19.115L5.906,20.66a1.434,1.434,0,0,0-1.98,0,1.4,1.4,0,0,0,0,1.98l-2.31,2.31a2.333,2.333,0,0,0,3.3,3.3l2.31-2.309a1.4,1.4,0,0,0,1.98-1.98l1.547-1.547a8.782,8.782,0,0,0,1.379.636v5.417a.467.467,0,0,0,.467.467H28.467a.467.467,0,0,0,.467-.467V1.4a.467.467,0,0,0-.467-.467ZM4.257,27.589a1.4,1.4,0,0,1-1.981-1.98l2.31-2.31,1.98,1.98Zm4.29-2.309a.467.467,0,0,1-.66,0l-3.3-3.3a.467.467,0,0,1,.66-.66l3.3,3.3a.467.467,0,0,1,0,.66Zm0-1.98-1.98-1.98,1.4-1.4a8.2,8.2,0,0,0,1.981,1.979ZM28,28H13.066V23.327a8.809,8.809,0,0,0,8.349-2.337,8.867,8.867,0,0,0,0-12.54,8.914,8.914,0,0,0-8.349-2.343V1.867H28Z"/><path class="c" d="M15.866,3.267H26.6V4.2H15.866Z"/><path class="c" d="M22.4,5.6h4.2v.933H22.4Z"/></g></g></svg>