<svg xmlns="http://www.w3.org/2000/svg" xmlns:xlink="http://www.w3.org/1999/xlink" width="28" height="28" viewBox="0 0 28 28"><defs><style>.a{fill:#fff;}.b{clip-path:url(#a);}.c{fill:#e63838;}</style><clipPath id="a"><rect class="a" width="28" height="28" transform="translate(382 760)"/></clipPath></defs><g class="b" transform="translate(-382 -760)"><g transform="translate(382 760)"><path class="c" d="M25.124,7.269,18.095.24a.82.82,0,0,0-.58-.24H5.653A3.02,3.02,0,0,0,2.636,3.017V24.983A3.02,3.02,0,0,0,5.653,28H22.347a3.02,3.02,0,0,0,3.017-3.017V7.849a.82.82,0,0,0-.24-.58ZM18.335,2.8l4.228,4.228H19.711a1.378,1.378,0,0,1-1.376-1.376Zm4.012,23.559H5.653a1.378,1.378,0,0,1-1.376-1.376V3.017A1.378,1.378,0,0,1,5.653,1.641H16.694V5.653A3.02,3.02,0,0,0,19.711,8.67h4.012V24.983a1.378,1.378,0,0,1-1.376,1.376Z"/><path class="c" d="M14,10.544a6.971,6.971,0,1,0,6.971,6.971A6.979,6.979,0,0,0,14,10.544Zm0,12.3a5.33,5.33,0,1,1,5.33-5.33A5.336,5.336,0,0,1,14,22.845Z"/><path class="c" d="M16.444,15.071a.82.82,0,0,0-1.16,0L14,16.355l-1.284-1.284a.82.82,0,0,0-1.16,1.16l1.284,1.284L11.556,18.8a.82.82,0,0,0,1.16,1.16L14,18.675l1.284,1.284a.82.82,0,0,0,1.16-1.16L15.16,17.515l1.284-1.284A.82.82,0,0,0,16.444,15.071Z"/></g></g></svg>