<svg xmlns="http://www.w3.org/2000/svg" xmlns:xlink="http://www.w3.org/1999/xlink" width="140" height="97" viewBox="0 0 140 97">
  <defs>
    <clipPath id="clip-path">
      <rect id="Rectangle_700" data-name="Rectangle 700" width="140" height="97" transform="translate(852 1543)" fill="#fff"/>
    </clipPath>
  </defs>
  <g id="SEO" transform="translate(-852 -1543)" clip-path="url(#clip-path)">
    <g id="undraw_Operating_system_re_iqsc" transform="translate(852 1554.418)">
      <path id="Path_1164" data-name="Path 1164" d="M242.37,140.287a85.166,85.166,0,0,1-10.944-.8l-.382-.054.192-34.288c.126-.1.255-.2.384-.3.429-.32.87-.62,1.326-.9,2.2-1.324,4.77-1.93,6.545-1.323l.028.011a3.115,3.115,0,0,1,1.056.608c1.559,1.385,1.3,4.184.041,6.725,2.494-2.279,5.642-4.093,8.452-4.231,2.74-.135,4.7,1.3,6.362,2.852l.162.153c.027.025.053.051.081.076,1.268,1.213,2.518,2.626,2.367,4.673-.166,2.244-2.046,4.732-4.236,6.477a36.629,36.629,0,0,1-7.1,4.079,28.666,28.666,0,0,0-6.986,4.338,26.717,26.717,0,0,1,10.494-5.381c3.579-.762,7.017-.091,8.7,2.188a5.331,5.331,0,0,1,.942,2.335c.016.1.03.2.041.3a9.358,9.358,0,0,1-2.234,6.772,15.591,15.591,0,0,1-7.471,4.811A25.48,25.48,0,0,1,242.37,140.287Z" transform="translate(-119.723 -75.345)" fill="#f2f2f2"/>
      <path id="Path_1165" data-name="Path 1165" d="M231.253,118.163l0-.656q.2-.312.386-.628c.082-.13.161-.262.242-.393q1.992-3.262,3.822-6.565t3.494-6.633a.275.275,0,0,1,.314-.158.079.079,0,0,1,.023.011c.058.031.082.1.033.2-.137.273-.273.547-.413.819q-1.691,3.342-3.551,6.656t-3.882,6.585l-.085.138Z" transform="translate(-119.812 -75.654)" fill="#fff"/>
      <path id="Path_1166" data-name="Path 1166" d="M231.171,130.847l0-.405.384-.273,9.038-6.444q7.4-5.275,14.8-10.548a.261.261,0,0,1,.089-.046c.109-.03.173.05.162.153a.308.308,0,0,1-.136.214l-8.3,5.914-14.722,10.494-.936.667C231.427,130.665,231.3,130.757,231.171,130.847Z" transform="translate(-119.777 -79.884)" fill="#fff"/>
      <path id="Path_1167" data-name="Path 1167" d="M233.489,153.759c-.683-.021-1.356-.066-2.022-.125l-.382-.034,0-.425c.127.013.255.026.382.037.962.09,1.936.154,2.935.162a40.949,40.949,0,0,0,8.254-.806,51.4,51.4,0,0,0,8.576-2.5,58.89,58.89,0,0,0,8.485-4.085.227.227,0,0,1,.151-.038c.121.018.157.179.041.3a.351.351,0,0,1-.077.061q-.506.294-1.015.578a58.856,58.856,0,0,1-8.514,3.91,51.153,51.153,0,0,1-8.588,2.328A40.4,40.4,0,0,1,233.489,153.759Z" transform="translate(-119.741 -93.763)" fill="#fff"/>
      <path id="Path_1168" data-name="Path 1168" d="M160.115,55.527H66.9a1.34,1.34,0,0,0-1.339,1.339v63.166a1.34,1.34,0,0,0,1.339,1.339h93.216a1.338,1.338,0,0,0,1.018-.47.312.312,0,0,0,.029-.037,1.255,1.255,0,0,0,.192-.324,1.307,1.307,0,0,0,.1-.508V56.866A1.341,1.341,0,0,0,160.115,55.527Zm.958,64.505a.949.949,0,0,1-.158.525.99.99,0,0,1-.362.326.95.95,0,0,1-.438.106H66.9a.958.958,0,0,1-.957-.957V56.866a.958.958,0,0,1,.957-.957h93.216a.958.958,0,0,1,.958.957Z" transform="translate(-49.744 -55.527)" fill="#3f3d56"/>
      <rect id="Rectangle_721" data-name="Rectangle 721" width="95.513" height="0.383" transform="translate(16.006 5.367)" fill="#3f3d56"/>
      <circle id="Ellipse_25" data-name="Ellipse 25" cx="1.148" cy="1.148" r="1.148" transform="translate(18.111 1.723)" fill="#3f3d56"/>
      <circle id="Ellipse_26" data-name="Ellipse 26" cx="1.148" cy="1.148" r="1.148" transform="translate(21.413 1.723)" fill="#3f3d56"/>
      <circle id="Ellipse_27" data-name="Ellipse 27" cx="1.148" cy="1.148" r="1.148" transform="translate(24.715 1.723)" fill="#3f3d56"/>
      <path id="Path_1169" data-name="Path 1169" d="M153.605,77.255H105.692a2,2,0,0,1,0-3.993h47.914a2,2,0,1,1,0,3.993Zm-47.914-3.686a1.689,1.689,0,0,0,0,3.379h47.914a1.689,1.689,0,1,0,0-3.379Z" transform="translate(-65.871 -63.027)" fill="#3f3d56"/>
      <path id="Path_1170" data-name="Path 1170" d="M103.8,99.535H99.5a1.229,1.229,0,1,1,0-2.457h4.3a1.229,1.229,0,1,1,0,2.457Z" transform="translate(-63.576 -73.098)" fill="#ccc"/>
      <path id="Path_1171" data-name="Path 1171" d="M108.865,106.719H99.5a1.229,1.229,0,1,1,0-2.457h9.368a1.229,1.229,0,0,1,0,2.457Z" transform="translate(-63.576 -76.136)" fill="#ccc"/>
      <path id="Path_1172" data-name="Path 1172" d="M105.128,130.934h-4.3a1.229,1.229,0,0,1,0-2.457h4.3a1.229,1.229,0,0,1,0,2.457Z" transform="translate(-64.139 -86.375)" fill="#ccc"/>
      <path id="Path_1173" data-name="Path 1173" d="M110.2,138.118h-9.368a1.229,1.229,0,1,1,0-2.457H110.2a1.229,1.229,0,0,1,0,2.457Z" transform="translate(-64.139 -89.413)" fill="#ccc"/>
      <path id="Path_1174" data-name="Path 1174" d="M154.089,130.135h-4.3a1.229,1.229,0,1,1,0-2.457h4.3a1.229,1.229,0,0,1,0,2.457Z" transform="translate(-84.843 -86.038)" fill="#ccc"/>
      <path id="Path_1175" data-name="Path 1175" d="M159.157,137.32h-9.368a1.229,1.229,0,1,1,0-2.457h9.368a1.229,1.229,0,0,1,0,2.457Z" transform="translate(-84.843 -89.076)" fill="#ccc"/>
      <path id="Path_1176" data-name="Path 1176" d="M153.29,100.865h-4.3a1.229,1.229,0,0,1,0-2.457h4.3a1.229,1.229,0,0,1,0,2.457Z" transform="translate(-84.505 -73.66)" fill="#ccc"/>
      <path id="Path_1177" data-name="Path 1177" d="M158.358,108.05h-9.368a1.229,1.229,0,0,1,0-2.457h9.368a1.229,1.229,0,0,1,0,2.457Z" transform="translate(-84.505 -76.698)" fill="#ccc"/>
      <path id="Path_1178" data-name="Path 1178" d="M203.05,99.269h-4.3a1.229,1.229,0,1,1,0-2.457h4.3a1.229,1.229,0,0,1,0,2.457Z" transform="translate(-105.547 -72.985)" fill="#ccc"/>
      <path id="Path_1179" data-name="Path 1179" d="M208.118,106.453H198.75a1.229,1.229,0,1,1,0-2.457h9.368a1.229,1.229,0,1,1,0,2.457Z" transform="translate(-105.547 -76.023)" fill="#ccc"/>
      <circle id="Ellipse_28" data-name="Ellipse 28" cx="4.607" cy="4.607" r="4.607" transform="translate(23.728 22.675)" fill="#00bfa6"/>
      <path id="Path_1180" data-name="Path 1180" d="M87.489,103.353h-4.3a.461.461,0,0,1-.461-.461V99.667a.461.461,0,0,1,.461-.461H84.4a.458.458,0,0,1,.392.219l.338.549h2.359a.461.461,0,0,1,.461.461v2.457A.461.461,0,0,1,87.489,103.353Zm-4.3-3.839a.154.154,0,0,0-.154.154v3.225a.154.154,0,0,0,.154.154h4.3a.154.154,0,0,0,.154-.154v-2.457a.154.154,0,0,0-.154-.154H84.958l-.428-.695a.153.153,0,0,0-.131-.073Z" transform="translate(-57.005 -73.998)" fill="#fff"/>
      <circle id="Ellipse_29" data-name="Ellipse 29" cx="4.607" cy="4.607" r="4.607" transform="translate(51.984 23.443)" fill="#00bfa6"/>
      <path id="Path_1181" data-name="Path 1181" d="M136.409,104.909h-3.993a.461.461,0,0,1-.461-.461V99.534a.461.461,0,0,1,.461-.461h2.893a.462.462,0,0,1,.289.1l1.1.884a.458.458,0,0,1,.172.359v4.031a.461.461,0,0,1-.461.461Zm-3.993-5.528a.154.154,0,0,0-.154.154v4.914a.154.154,0,0,0,.154.154h3.993a.154.154,0,0,0,.154-.154v-4.031a.153.153,0,0,0-.057-.12l-1.1-.884a.154.154,0,0,0-.1-.034Z" transform="translate(-77.821 -73.941)" fill="#fff"/>
      <path id="Path_1182" data-name="Path 1182" d="M136.429,102.574h-2.457a.154.154,0,0,1,0-.307h2.457a.154.154,0,0,1,0,.307Z" transform="translate(-78.609 -75.292)" fill="#fff"/>
      <path id="Path_1183" data-name="Path 1183" d="M136.429,104.17h-2.457a.154.154,0,0,1,0-.307h2.457a.154.154,0,0,1,0,.307Z" transform="translate(-78.609 -75.967)" fill="#fff"/>
      <path id="Path_1184" data-name="Path 1184" d="M136.429,105.767h-2.457a.154.154,0,0,1,0-.307h2.457a.154.154,0,0,1,0,.307Z" transform="translate(-78.609 -76.642)" fill="#fff"/>
      <circle id="Ellipse_30" data-name="Ellipse 30" cx="4.607" cy="4.607" r="4.607" transform="translate(80.395 22.521)" fill="#00bfa6"/>
      <path id="Path_1185" data-name="Path 1185" d="M185.677,102.984h-4.3a.461.461,0,0,1-.461-.461v-2.457a.461.461,0,0,1,.461-.461h4.3a.461.461,0,0,1,.461.461v2.457A.461.461,0,0,1,185.677,102.984Zm-4.3-3.071a.154.154,0,0,0-.154.154v2.457a.154.154,0,0,0,.154.154h4.3a.154.154,0,0,0,.154-.154v-2.457a.154.154,0,0,0-.154-.154Z" transform="translate(-98.526 -74.167)" fill="#fff"/>
      <path id="Path_1186" data-name="Path 1186" d="M183.527,101.925a.461.461,0,0,1-.244-.07l-2.294-1.434a.154.154,0,1,1,.163-.261l2.294,1.434a.154.154,0,0,0,.163,0l2.294-1.434a.154.154,0,0,1,.163.261l-2.294,1.434A.461.461,0,0,1,183.527,101.925Z" transform="translate(-98.526 -74.391)" fill="#fff"/>
      <circle id="Ellipse_31" data-name="Ellipse 31" cx="4.607" cy="4.607" r="4.607" transform="translate(23.728 40.796)" fill="#00bfa6"/>
      <path id="Path_1187" data-name="Path 1187" d="M87.489,134.649h-4.3a.461.461,0,0,1-.461-.461v-2.457a.461.461,0,0,1,.461-.461h4.3a.461.461,0,0,1,.461.461v2.457a.461.461,0,0,1-.461.461Zm-4.3-3.071a.154.154,0,0,0-.154.154v2.457a.154.154,0,0,0,.154.154h4.3a.154.154,0,0,0,.154-.154v-2.457a.154.154,0,0,0-.154-.154Z" transform="translate(-57.005 -87.557)" fill="#fff"/>
      <path id="Path_1188" data-name="Path 1188" d="M87.307,135.493h-3.09a.307.307,0,0,1-.266-.461l.931-1.612a.307.307,0,0,1,.532,0l.6,1.041.348-.6a.307.307,0,0,1,.532,0l.678,1.174a.307.307,0,0,1-.266.461Zm0-.307h0l-.678-1.174-.481.834a.154.154,0,0,1-.133.077h0a.154.154,0,0,1-.133-.077l-.734-1.272-.931,1.612Z" transform="translate(-57.504 -88.401)" fill="#fff"/>
      <circle id="Ellipse_32" data-name="Ellipse 32" cx="0.307" cy="0.307" r="0.307" transform="translate(29.717 44.328)" fill="#fff"/>
      <circle id="Ellipse_33" data-name="Ellipse 33" cx="4.607" cy="4.607" r="4.607" transform="translate(52.292 40.335)" fill="#00bfa6"/>
      <path id="Path_1189" data-name="Path 1189" d="M135.733,131.507a1.382,1.382,0,1,1,1.382-1.382A1.382,1.382,0,0,1,135.733,131.507Zm0-2.457a1.075,1.075,0,1,0,1.075,1.075A1.075,1.075,0,0,0,135.733,129.05Z" transform="translate(-78.834 -86.488)" fill="#fff"/>
      <path id="Path_1190" data-name="Path 1190" d="M136.68,136.368h-2.457a.538.538,0,0,1-.537-.537,1.766,1.766,0,1,1,3.532,0,.538.538,0,0,1-.537.538Zm-1.229-2a1.461,1.461,0,0,0-1.459,1.459.231.231,0,0,0,.23.23h2.457a.231.231,0,0,0,.23-.23A1.461,1.461,0,0,0,135.451,134.372Z" transform="translate(-78.553 -88.738)" fill="#fff"/>
      <path id="Path_1191" data-name="Path 1191" d="M21.537,120.061h1.883l.9-7.262H21.536Z" transform="translate(-9.107 -47.7)" fill="#ffb8b8"/>
      <path id="Path_1192" data-name="Path 1192" d="M0,0H5.917V2.286H2.286A2.286,2.286,0,0,1,0,0H0Z" transform="translate(17.943 74.11) rotate(179.997)" fill="#2f2e41"/>
      <path id="Path_1193" data-name="Path 1193" d="M9.3,120.061h1.883l.9-7.262H9.3Z" transform="translate(-3.931 -47.7)" fill="#ffb8b8"/>
      <path id="Path_1194" data-name="Path 1194" d="M0,0H5.917V2.286H2.286A2.286,2.286,0,0,1,0,0H0Z" transform="translate(10.879 74.11) rotate(179.997)" fill="#2f2e41"/>
      <path id="Path_1195" data-name="Path 1195" d="M45.971,128.7a1.65,1.65,0,0,0,.317-2.51l1.24-17.593-3.571.346-.1,17.228a1.659,1.659,0,0,0,2.113,2.528Z" transform="translate(-40.376 -77.971)" fill="#ffb8b8"/>
      <path id="Path_1196" data-name="Path 1196" d="M54.051,158.121a.694.694,0,0,1-.686-.609l-1.094-9.153a.537.537,0,0,0-1.065-.02L49.827,157.1a.688.688,0,0,1-.683.584H46.91a.691.691,0,0,1-.691-.7l1.066-19.432a.687.687,0,0,1,.592-.679l8.292-1.2a.691.691,0,0,1,.79.689l-.145,20.971a.691.691,0,0,1-.658.685l-2.073.1Z" transform="translate(-41.566 -89.417)" fill="#2f2e41"/>
      <path id="Path_1197" data-name="Path 1197" d="M48.943,124.056a6.924,6.924,0,0,1-2.338-.416.686.686,0,0,1-.448-.615c-.072-1.587-.49-9.758-1.708-14.742a5.1,5.1,0,0,1,1.941-5.309q.1-.071.2-.139a4.961,4.961,0,0,1,4.821-.378,5.1,5.1,0,0,1,2.974,3.986l1.987,14.75a.688.688,0,0,1-.143.522.679.679,0,0,1-.469.257,10.431,10.431,0,0,0-3.944,1.351A5.855,5.855,0,0,1,48.943,124.056Z" transform="translate(-40.756 -75.18)" fill="#3f3d56"/>
      <path id="Path_1198" data-name="Path 1198" d="M45.363,113.622l-3.27-.886a.692.692,0,0,1-.486-.848l1.149-4.239a1.9,1.9,0,0,1,3.739.6l-.262,4.742a.691.691,0,0,1-.871.629Z" transform="translate(-39.605 -76.973)" fill="#3f3d56"/>
      <circle id="Ellipse_34" data-name="Ellipse 34" cx="3.772" cy="3.772" r="3.772" transform="translate(5.626 17.729)" fill="#ffb8b8"/>
      <path id="Path_1199" data-name="Path 1199" d="M70.834,104.711a1.618,1.618,0,0,0-.037.252l-6.6,3.806-1.6-.923-1.709,2.238,3.43,2.445,7.526-5.937a1.612,1.612,0,1,0-1.01-1.88Z" transform="translate(-47.769 -75.8)" fill="#ffb8b8"/>
      <path id="Path_1200" data-name="Path 1200" d="M60.921,109.32l-2.842,1.844a.692.692,0,0,1-.956-.2l-2.391-3.684a1.9,1.9,0,0,1,2.944-2.383l3.358,3.358a.691.691,0,0,1-.113,1.068Z" transform="translate(-45.036 -76.167)" fill="#3f3d56"/>
      <path id="Path_1201" data-name="Path 1201" d="M48.494,91.78a1.218,1.218,0,0,0,2.1-.677,1.237,1.237,0,0,0,0-.239,5.537,5.537,0,0,1-.247-1.344.705.705,0,0,1,.129-.33c.561-.751,1.877.336,2.406-.344.324-.417-.057-1.073.192-1.539.329-.615,1.3-.312,1.913-.648.679-.375.639-1.417.191-2.051a3.226,3.226,0,0,0-2.445-1.245,6.559,6.559,0,0,0-2.763.539,5.522,5.522,0,0,0-2.611,1.81,4.419,4.419,0,0,0-.447,3.763A7.093,7.093,0,0,0,48.494,91.78Z" transform="translate(-41.766 -67.294)" fill="#2f2e41"/>
      <path id="Path_1202" data-name="Path 1202" d="M59.809,183.732h-21.5a.154.154,0,1,1,0-.307h21.5a.154.154,0,1,1,0,.307Z" transform="translate(-38.156 -109.612)" fill="#3f3d56"/>
    </g>
  </g>
</svg>
