<svg xmlns="http://www.w3.org/2000/svg" xmlns:xlink="http://www.w3.org/1999/xlink" width="36" height="36" viewBox="0 0 36 36"><defs><style>.a{fill:#fff;}.b{clip-path:url(#a);}.c{fill:#9e9e9e;}</style><clipPath id="a"><rect class="a" width="36" height="36" transform="translate(613 602)"/></clipPath></defs><g class="b" transform="translate(-613 -602)"><g transform="translate(613 602)"><path class="c" d="M31.713,35.681H4.1a4.107,4.107,0,0,1-4.1-4.1V9.938a4.107,4.107,0,0,1,4.1-4.1H9.327a1.119,1.119,0,0,1,0,2.239H4.1A1.868,1.868,0,0,0,2.239,9.938V31.577A1.868,1.868,0,0,0,4.1,33.442H31.713a1.868,1.868,0,0,0,1.866-1.865V18.892a1.119,1.119,0,1,1,2.239,0V31.577A4.107,4.107,0,0,1,31.713,35.681Zm0,0" transform="translate(0 0.136)"/><path class="c" d="M9.868,23.859a.986.986,0,0,1-.246-.03,1.1,1.1,0,0,1-.871-1.07V20.52A14.567,14.567,0,0,1,23.3,5.97h.373V1.12A1.119,1.119,0,0,1,25.6.344l9.7,10.073a1.118,1.118,0,0,1,0,1.552L25.6,22.042a1.119,1.119,0,0,1-1.925-.776v-4.85H21.9a12.243,12.243,0,0,0-11.012,6.807,1.152,1.152,0,0,1-1.021.636ZM23.3,8.208A12.332,12.332,0,0,0,11.083,18.983,14.47,14.47,0,0,1,21.9,14.178h2.892A1.12,1.12,0,0,1,25.912,15.3v3.194l7.027-7.3L25.912,3.9V7.089a1.12,1.12,0,0,1-1.119,1.119Zm0,0" transform="translate(0.204 0)"/></g></g></svg>