<svg xmlns="http://www.w3.org/2000/svg" xmlns:xlink="http://www.w3.org/1999/xlink" width="53.95" height="53.95" viewBox="0 0 53.95 53.95">
  <defs>
    <clipPath id="clip-path">
      <rect id="Rectangle_647" data-name="Rectangle 647" width="38.458" height="38.458" fill="#fff"/>
    </clipPath>
  </defs>
  <g id="Star_icon" data-name="Star icon" transform="translate(-1044.105 -339.396)">
    <g id="Mask_Group_27" data-name="Mask Group 27" transform="translate(1051.851 347.14)" clip-path="url(#clip-path)">
      <g id="star-outline" transform="translate(0 0.816)">
        <path id="Path_1072" data-name="Path 1072" d="M8.924,37.274a2.556,2.556,0,0,1-2.43-3.344L9.858,23.579l-8.805-6.4a2.554,2.554,0,0,1,1.5-4.62H13.437L16.8,2.212a2.554,2.554,0,0,1,4.857,0l3.364,10.35H35.9a2.554,2.554,0,0,1,1.5,4.619l-8.805,6.4L31.964,33.93a2.549,2.549,0,0,1-.927,2.855,2.593,2.593,0,0,1-3,0l-8.8-6.4-8.8,6.4A2.537,2.537,0,0,1,8.924,37.274ZM2.554,14.751a.365.365,0,0,0-.214.66l10.091,7.331L8.577,34.607a.365.365,0,0,0,.133.408.308.308,0,0,0,.428,0L19.23,27.683,29.32,35.015a.311.311,0,0,0,.429,0,.364.364,0,0,0,.133-.409L26.027,22.743l10.092-7.332a.365.365,0,0,0-.215-.66H23.431L19.577,2.889a.38.38,0,0,0-.695,0L15.028,14.751H2.554Z" transform="translate(0 -0.448)" fill="#fdca3b"/>
      </g>
    </g>
    <g id="Ellipse_10" data-name="Ellipse 10" transform="translate(1044.105 339.396)" fill="none" stroke="#fdca3b" stroke-width="2.5">
      <ellipse cx="26.975" cy="26.975" rx="26.975" ry="26.975" stroke="none"/>
      <ellipse cx="26.975" cy="26.975" rx="25.725" ry="25.725" fill="none"/>
    </g>
  </g>
</svg>
