<svg xmlns="http://www.w3.org/2000/svg" xmlns:xlink="http://www.w3.org/1999/xlink" width="36" height="36" viewBox="0 0 36 36"><defs><style>.a{fill:#fff;}.b{clip-path:url(#a);}.c{fill:#9e9e9e;}</style><clipPath id="a"><rect class="a" width="36" height="36" transform="translate(562 602)"/></clipPath></defs><g class="b" transform="translate(-562 -602)"><path class="c" d="M8.052,34.51a1.915,1.915,0,0,1-1.863-2.339L8.5,21.977.654,15.093a1.914,1.914,0,0,1,1.084-3.346L12.124,10.8,16.23,1.2a1.912,1.912,0,0,1,3.517,0L23.852,10.8l10.384.943a1.914,1.914,0,0,1,1.087,3.346l-7.849,6.882L29.788,32.17a1.911,1.911,0,0,1-2.845,2.066l-8.955-5.352L9.033,34.239a1.916,1.916,0,0,1-.98.271Zm9.936-7.931a1.917,1.917,0,0,1,.98.271l8.452,5.055-2.184-9.623a1.912,1.912,0,0,1,.606-1.863l7.411-6.5-9.805-.89a1.91,1.91,0,0,1-1.589-1.159L17.988,2.8l-3.875,9.069a1.9,1.9,0,0,1-1.584,1.154l-9.807.89,7.411,6.5a1.908,1.908,0,0,1,.606,1.865L8.556,31.9l8.452-5.053a1.916,1.916,0,0,1,.98-.271ZM12.044,10.99a0,0,0,0,1,0,0Zm11.884,0,0,0S23.93,10.987,23.929,10.986Zm0,0" transform="translate(562 602.716)"/></g></svg>