<svg xmlns="http://www.w3.org/2000/svg" xmlns:xlink="http://www.w3.org/1999/xlink" width="28" height="28" viewBox="0 0 28 28"><defs><style>.a{fill:#fff;}.b{clip-path:url(#a);}.c{fill:#585dd1;}</style><clipPath id="a"><rect class="a" width="28" height="28" transform="translate(382 760)"/></clipPath></defs><g class="b" transform="translate(-382 -760)"><g transform="translate(382 760)"><path class="c" d="M25.943,3.829a2.461,2.461,0,1,0-4.089,0A4.1,4.1,0,0,0,19.8,7.383V9.023a.82.82,0,0,0,.82.82H27.18a.82.82,0,0,0,.82-.82V7.383A4.1,4.1,0,0,0,25.943,3.829ZM23.9,1.641a.82.82,0,1,1-.82.82A.821.821,0,0,1,23.9,1.641ZM26.359,8.2H21.438v-.82a2.461,2.461,0,0,1,4.922,0Z"/><path class="c" d="M16.044,8.751a2.461,2.461,0,1,0-4.089,0A4.1,4.1,0,0,0,9.9,12.3v1.641a.82.82,0,0,0,.82.82h6.563a.82.82,0,0,0,.82-.82V12.3A4.1,4.1,0,0,0,16.044,8.751ZM14,6.563a.82.82,0,1,1-.82.82A.821.821,0,0,1,14,6.563Zm2.461,6.563H11.539V12.3a2.461,2.461,0,0,1,4.922,0Z"/><path class="c" d="M6.146,13.673a2.461,2.461,0,1,0-4.089,0A4.1,4.1,0,0,0,0,17.227v1.641a.82.82,0,0,0,.82.82H7.383a.82.82,0,0,0,.82-.82V17.227A4.1,4.1,0,0,0,6.146,13.673ZM4.1,11.484a.82.82,0,1,1-.82.82A.821.821,0,0,1,4.1,11.484Zm2.461,6.563H1.641v-.82a2.461,2.461,0,0,1,4.922,0Z"/><path class="c" d="M27.18,11.484H20.617a.82.82,0,0,0-.82.82V26.359H18.1V17.227a.82.82,0,0,0-.82-.82H10.719a.82.82,0,0,0-.82.82v9.133H8.2V22.148a.82.82,0,0,0-.82-.82H.82a.82.82,0,0,0-.82.82V27.18A.82.82,0,0,0,.82,28H27.18a.82.82,0,0,0,.82-.82V12.3A.82.82,0,0,0,27.18,11.484ZM6.563,26.359H1.641V22.969H6.563Zm9.9,0H11.539V18.047h4.922Zm9.9,0H21.438V13.125h4.922Z"/></g></g></svg>