<svg xmlns="http://www.w3.org/2000/svg" xmlns:xlink="http://www.w3.org/1999/xlink" width="28" height="28" viewBox="0 0 28 28"><defs><style>.a{fill:#fff;}.b{clip-path:url(#a);}.c{fill:#f99600;}</style><clipPath id="a"><rect class="a" width="28" height="28" transform="translate(382 760)"/></clipPath></defs><g class="b" transform="translate(-382 -760)"><g transform="translate(382 760)"><path class="a" d="M24.52,2.822V27.059H3.48V2.822H9.689V6.459h8.654V2.822ZM11.256,22.45V18.782H7.588V22.45Zm0-7.525V11.256H7.588v3.669Z"/><path class="a" d="M14.016.941a2.36,2.36,0,0,1,2.32,1.881h2.007V6.459H9.689V2.822H11.7A2.386,2.386,0,0,1,14.016.941Z"/><rect class="a" width="3.669" height="3.669" transform="translate(7.588 18.782)"/><rect class="a" width="3.669" height="3.669" transform="translate(7.588 11.256)"/><path class="c" d="M24.52,1.881H16.994A3.3,3.3,0,0,0,14.016,0a3.34,3.34,0,0,0-2.979,1.881H3.48a.924.924,0,0,0-.941.941V27.059A.924.924,0,0,0,3.48,28H24.52a.924.924,0,0,0,.941-.941V2.822A.924.924,0,0,0,24.52,1.881ZM11.7,3.763a.941.941,0,0,0,.909-.721,1.459,1.459,0,0,1,1.411-1.16A1.444,1.444,0,0,1,15.427,3.01a.937.937,0,0,0,.909.753H17.4V5.518H10.629V3.763ZM23.579,26.119H4.421V3.763H8.748v2.7a.924.924,0,0,0,.941.941h8.654a.924.924,0,0,0,.941-.941v-2.7h4.3V26.119Z"/><path class="c" d="M11.256,15.866H7.588a.924.924,0,0,1-.941-.941V11.256a.924.924,0,0,1,.941-.941h3.669a.924.924,0,0,1,.941.941v3.669A.924.924,0,0,1,11.256,15.866ZM8.529,13.984h1.787V12.2H8.529Z"/><path class="c" d="M19.816,14.016h-4.8a.941.941,0,0,1,0-1.881h4.8a.941.941,0,1,1,0,1.881Z"/><path class="c" d="M11.256,23.391H7.588a.924.924,0,0,1-.941-.941V18.782a.924.924,0,0,1,.941-.941h3.669a.924.924,0,0,1,.941.941V22.45A.924.924,0,0,1,11.256,23.391ZM8.529,21.51h1.787V19.722H8.529Z"/><path class="c" d="M19.816,21.541h-4.8a.941.941,0,1,1,0-1.881h4.8a.941.941,0,1,1,0,1.881Z"/></g></g></svg>