<svg xmlns="http://www.w3.org/2000/svg" xmlns:xlink="http://www.w3.org/1999/xlink" width="58" height="57" viewBox="0 0 58 57"><defs><style>.a{fill:#fff;}.b{clip-path:url(#a);}</style><clipPath id="a"><rect class="a" width="58" height="57" transform="translate(387 612)"/></clipPath></defs><g class="b" transform="translate(-387 -612)"><g transform="translate(387.5 612)"><path d="M28.455,0A28.517,28.517,0,0,0,.045,26.719h19.5V21.375a1.782,1.782,0,0,1,1.781-1.781H35.58a1.782,1.782,0,0,1,1.781,1.781v14.25a1.782,1.782,0,0,1-1.781,1.781H21.33a1.782,1.782,0,0,1-1.781-1.781V30.281H.045A28.484,28.484,0,1,0,28.455,0Z"/></g></g></svg>