<svg xmlns="http://www.w3.org/2000/svg" xmlns:xlink="http://www.w3.org/1999/xlink" width="140" height="98" viewBox="0 0 140 98">
  <defs>
    <clipPath id="clip-path">
      <rect id="Rectangle_710" data-name="Rectangle 710" width="140" height="98" transform="translate(853 1856)" fill="#fff"/>
    </clipPath>
  </defs>
  <g id="Web" transform="translate(-853 -1856)" clip-path="url(#clip-path)">
    <g id="undraw_Web_developer_re_h7ie" transform="translate(861.724 1856)">
      <rect id="Rectangle_62" data-name="Rectangle 62" width="73.297" height="35.493" transform="translate(48.924 2.051)" fill="#e6e6e6"/>
      <rect id="Rectangle_75" data-name="Rectangle 75" width="69.105" height="29.613" transform="translate(51.02 5.094)" fill="#fff"/>
      <rect id="Rectangle_80" data-name="Rectangle 80" width="73.297" height="3.178" transform="translate(48.893)" fill="#f9a826"/>
      <ellipse id="Ellipse_90" data-name="Ellipse 90" cx="0.577" cy="0.589" rx="0.577" ry="0.589" transform="translate(50.63 1.28)" fill="#fff"/>
      <ellipse id="Ellipse_91" data-name="Ellipse 91" cx="0.577" cy="0.589" rx="0.577" ry="0.589" transform="translate(52.821 1.28)" fill="#fff"/>
      <ellipse id="Ellipse_92" data-name="Ellipse 92" cx="0.577" cy="0.589" rx="0.577" ry="0.589" transform="translate(55.011 1.28)" fill="#fff"/>
      <rect id="Rectangle_731" data-name="Rectangle 731" width="11.489" height="20.029" transform="translate(92.367 9.886)" fill="#f2f2f2"/>
      <rect id="Rectangle_732" data-name="Rectangle 732" width="23.174" height="5.513" transform="translate(67.289 9.886)" fill="#f9a826"/>
      <rect id="Rectangle_733" data-name="Rectangle 733" width="23.174" height="5.932" transform="translate(67.289 16.934)" fill="#f2f2f2"/>
      <rect id="Rectangle_734" data-name="Rectangle 734" width="23.174" height="5.513" transform="translate(67.289 24.402)" fill="#f2f2f2"/>
      <path id="Path_1264" data-name="Path 1264" d="M105.693,129.553a2.909,2.909,0,0,0-.932-2.156,2.788,2.788,0,0,0-2.2-.726,2.67,2.67,0,0,0-.371.07l-9.559-8.361.571-3.142-4.711-1.558-1.421,5.035a2.949,2.949,0,0,0,1.214,3.259l11.759,7.59a2.814,2.814,0,0,0,.014.283,2.894,2.894,0,0,0,1.166,2.034,2.779,2.779,0,0,0,2.263.467,2.7,2.7,0,0,0,.333-.1,2.888,2.888,0,0,0,1.87-2.7Z" transform="translate(-70.723 -70.33)" fill="#9f616a"/>
      <path id="Path_1265" data-name="Path 1265" d="M75.829,157.274H88.153c0,.361,12.7.655,12.7.655a3.332,3.332,0,0,1,.542.524,3.292,3.292,0,0,1,.745,2.1v.524a3.243,3.243,0,0,1-3.209,3.275h-23.1a3.245,3.245,0,0,1-3.209-3.274v-.524A3.247,3.247,0,0,1,75.829,157.274Z" transform="translate(-64.623 -88.354)" fill="#3f3d56"/>
      <rect id="Rectangle_735" data-name="Rectangle 735" width="3.337" height="22.005" transform="translate(21.275 75.863)" fill="#3f3d56"/>
      <path id="Path_1266" data-name="Path 1266" d="M101.339,204.5c0,.412-5.057.159-11.3.159s-11.3.253-11.3-.159,5.057-3.679,11.3-3.679S101.339,204.088,101.339,204.5Z" transform="translate(-67.23 -106.359)" fill="#3f3d56"/>
      <path id="Path_1267" data-name="Path 1267" d="M54.1,156.383H57.25l1.5-8.33H54.1Z" transform="translate(-23.006 -61.214)" fill="#9f616a"/>
      <path id="Path_1268" data-name="Path 1268" d="M111.414,204.4h10.148v-.131a3.991,3.991,0,0,0-3.95-4.031h-6.2Z" transform="translate(-81.119 -106.118)" fill="#2f2e41"/>
      <path id="Path_1269" data-name="Path 1269" d="M104.489,172.334l6.274-14.357a5.313,5.313,0,0,0-2.264-6.754L94.89,143.775l-6.21-.539-5.728-.531-.041.071a6.021,6.021,0,0,0-.452,4.642c.632,1.806,2.274,3.216,4.882,4.192,6.088,2.278,13.12,4.225,15.861,4.956a.889.889,0,0,1,.568.461.933.933,0,0,1,.05.733l-5.829,13.364a1.2,1.2,0,0,0,.108,1.035,1.152,1.152,0,0,0,.87.544l4.355.324q.055.005.11.005a1.154,1.154,0,0,0,1.054-.7Z" transform="translate(-68.684 -82.33)" fill="#cbcbcb"/>
      <path id="Path_1270" data-name="Path 1270" d="M50.53,156.383h3.147l1.5-8.33H50.53Z" transform="translate(-21.487 -61.214)" fill="#9f616a"/>
      <path id="Path_1271" data-name="Path 1271" d="M107.841,204.4h10.148v-.131a3.991,3.991,0,0,0-3.95-4.031h-6.2Z" transform="translate(-79.6 -106.118)" fill="#2f2e41"/>
      <path id="Path_1272" data-name="Path 1272" d="M101.419,173.724l6.274-14.357a5.314,5.314,0,0,0-2.264-6.754L91.82,145.165l-6.21-.539-4.487-.4v-.063a6.021,6.021,0,0,0-.452,4.642c.632,1.806.991,3.216,3.6,4.192,6.088,2.278,13.12,4.225,15.861,4.956a.889.889,0,0,1,.568.461.933.933,0,0,1,.05.733l-5.829,13.364a1.2,1.2,0,0,0,.108,1.035,1.152,1.152,0,0,0,.87.544l4.355.324q.055.005.11.005a1.154,1.154,0,0,0,1.054-.7Z" transform="translate(-67.925 -82.934)" fill="#cbcbcb"/>
      <path id="Path_1273" data-name="Path 1273" d="M87.781,129.118c.3-.217,4.621,2.1,5.391.262-3.594-9.169-1.117-13.128-3.319-18.386A6.454,6.454,0,0,0,85.6,107.28l-5.712-.294-.03.015a6.849,6.849,0,0,0-3.65,7.227c.02,5.722,3.375,10.086,2.2,14.237a1.366,1.366,0,0,0,.124,1.043,1.256,1.256,0,0,0,.8.6l7.542-1.027a1.254,1.254,0,0,0,1.031-.2Z" transform="translate(-66.111 -67.562)" fill="#2f2e41"/>
      <ellipse id="Ellipse_36" data-name="Ellipse 36" cx="6.305" cy="6.434" rx="6.305" ry="6.434" transform="translate(9.379 24.379)" fill="#9f616a"/>
      <path id="Path_1274" data-name="Path 1274" d="M78.3,92.275c.335.15,1.021-2.574.714-3.119-.457-.81-.43-.8-.733-1.34a1.581,1.581,0,0,1,.022-1.741.889.889,0,0,1,1.481.182c-.115-1.123.973-2.026,2.052-2.28s2.216-.1,3.3-.322c1.258-.262,2.568-1.339,2.066-2.751a2,2,0,0,0-.38-.638,4.781,4.781,0,0,0-2.185-1.225,14.223,14.223,0,0,0-5.088-1.088,7.408,7.408,0,0,0-6.532,4.875,6.96,6.96,0,0,0-.278,1.054,7.1,7.1,0,0,0,4.3,7.766Z" transform="translate(-64.627 -55.556)" fill="#2f2e41"/>
      <path id="Path_1275" data-name="Path 1275" d="M135.8,119.855l.723,4.381a.275.275,0,0,1-.015.145l-5.672,14.463a.263.263,0,0,1-.29.166.268.268,0,0,1-.219-.254l-.24-5.812a.275.275,0,0,1,.019-.113l5.19-13.032a.264.264,0,0,1,.274-.167.267.267,0,0,1,.232.223Z" transform="translate(-89.058 -72.79)" fill="#3f3d56"/>
      <path id="Path_1276" data-name="Path 1276" d="M76.921,80.815l.687,3.764-5.034,13.2-.654-4.246Z" transform="translate(-30.583 -33.414)" fill="#f9a826"/>
      <path id="Path_1277" data-name="Path 1277" d="M101.007,147.089c.124.493,16.384,1.027,16.553.878a3.5,3.5,0,0,0,.391-.618c.17-.311.328-.622.328-.622l-.267-5.248-16.018-1.747s-.709,4.379-.931,6.391A4.929,4.929,0,0,0,101.007,147.089Z" transform="translate(-76.693 -81.101)" fill="#3f3d56"/>
      <path id="Path_1278" data-name="Path 1278" d="M63,103.54v4.521l-7.085-.514.313-4.5Z" transform="translate(-23.779 -42.607)" opacity="0.1"/>
      <path id="Path_1279" data-name="Path 1279" d="M49.053,105.012l.043-.005-.335,1.922-3.936-.286.134-1.928Z" transform="translate(-19.061 -43.296)" opacity="0.1"/>
      <path id="Path_1280" data-name="Path 1280" d="M101.007,151.594c.124.493,16.384,1.027,16.553.878a3.5,3.5,0,0,0,.391-.617l-16.888-1.225A4.931,4.931,0,0,0,101.007,151.594Z" transform="translate(-76.693 -85.607)" opacity="0.1"/>
      <path id="Path_1281" data-name="Path 1281" d="M87.594,133.2l13.716,2.612a2.781,2.781,0,0,0,.116.257,2.841,2.841,0,0,0,1.817,1.447,2.755,2.755,0,0,0,2.276-.421,2.919,2.919,0,0,0,.817-3.869,2.793,2.793,0,0,0-3.738-1.054,2.7,2.7,0,0,0-.319.205l-11.914-4.153-.61-3.134-4.942.334.512,5.254a2.845,2.845,0,0,0,2.268,2.521Z" transform="translate(-69.808 -75.047)" fill="#9f616a"/>
      <path id="Path_1282" data-name="Path 1282" d="M84.472,123.111l7.181-2.408-1.675-4.908a2.861,2.861,0,0,0-3.179-1.924h0a2.91,2.91,0,0,0-2.4,2.918Z" transform="translate(-69.634 -70.392)" fill="#2f2e41"/>
      <path id="Path_1283" data-name="Path 1283" d="M119.1,207.544H58.865a.161.161,0,0,1,0-.323H119.1a.161.161,0,0,1,0,.323Z" transform="translate(-58.707 -109.005)" fill="#cbcbcb"/>
      <path id="Path_1284" data-name="Path 1284" d="M199.887,198.462a10.258,10.258,0,0,1,4.173,4.848,9.9,9.9,0,0,1-6.288-.677,10.259,10.259,0,0,1-4.173-4.848A9.9,9.9,0,0,1,199.887,198.462Z" transform="translate(-116.067 -105.007)" fill="#f1f1f1"/>
      <path id="Path_1285" data-name="Path 1285" d="M202,196.509a10.092,10.092,0,0,0,5.072,3.853,10.486,10.486,0,0,0-1.17-6.341,10.092,10.092,0,0,0-5.072-3.853A10.485,10.485,0,0,0,202,196.509Z" transform="translate(-119.107 -101.955)" fill="#f1f1f1"/>
      <path id="Path_1286" data-name="Path 1286" d="M207.535,207.435H189.513a.161.161,0,0,1,0-.323h18.022a.161.161,0,0,1,0,.323Z" transform="translate(-114.262 -108.96)" fill="#cbcbcb"/>
    </g>
  </g>
</svg>
